<?xml version="1.0" encoding="utf-8"?>
<!-- Generator: Adobe Illustrator 27.1.1, SVG Export Plug-In . SVG Version: 6.00 Build 0)  -->
<svg version="1.1" id="Layer_2_00000023968738361296616060000007291645106198434440_"
	 xmlns="http://www.w3.org/2000/svg" xmlns:xlink="http://www.w3.org/1999/xlink" x="0px" y="0px" viewBox="0 0 1933.8 3926.9"
	 style="enable-background:new 0 0 1933.8 3926.9;" xml:space="preserve">
<style type="text/css">
	.st0{fill:none;}
	.st1{fill:url(#SVGID_1_);}
	.st2{fill:url(#SVGID_00000131343530243486602110000002901415386553024153_);}
	.st3{fill:url(#SVGID_00000003786423136085331820000005801026954651732355_);}
	.st4{fill:url(#SVGID_00000130639017278579067090000000052345047115150247_);}
	.st5{fill:url(#SVGID_00000118381798830273854610000004919173225200721574_);}
	.st6{fill:url(#SVGID_00000160880339815014397500000000946231212924797118_);}
	.st7{fill:url(#SVGID_00000054986584038748841770000012200608785116338589_);}
	.st8{fill:none;stroke:#D6D6D6;}
	.st9{fill:none;stroke:#C9C9C9;}
	.st10{fill:none;stroke:#D9D9D9;}
	.st11{fill:none;stroke:#C7C7C7;}
	.st12{fill:none;stroke:#FFFFFF;}
</style>
<g id="bg-img">
	<g>
		<rect x="304.5" class="st0" width="1281.5" height="3888.5"/>
		<g id="copy">
			<g>
				
					<linearGradient id="SVGID_1_" gradientUnits="userSpaceOnUse" x1="893.199" y1="-2813.5618" x2="1580.1591" y2="-2813.5618" gradientTransform="matrix(1 0 0 1 0 3159.8765)">
					<stop  offset="1.700000e-03" style="stop-color:#FFFFFF;stop-opacity:0"/>
					<stop  offset="8.640000e-02" style="stop-color:#FFCEFF;stop-opacity:0.113"/>
					<stop  offset="0.2172" style="stop-color:#FF8FFF;stop-opacity:0.2614"/>
					<stop  offset="0.3538" style="stop-color:#FF5BFF;stop-opacity:0.3843"/>
					<stop  offset="0.4954" style="stop-color:#FF33FF;stop-opacity:0.4794"/>
					<stop  offset="0.6443" style="stop-color:#FF16FF;stop-opacity:0.547"/>
					<stop  offset="0.8052" style="stop-color:#FF05FF;stop-opacity:0.5872"/>
					<stop  offset="1" style="stop-color:#FF00FF;stop-opacity:0.6"/>
				</linearGradient>
				<polygon class="st1" points="1090.4,591.7 893.2,591.7 893.2,101 1580.2,101 				"/>
				
					<linearGradient id="SVGID_00000078031681026356836260000010144975970772923536_" gradientUnits="userSpaceOnUse" x1="888.9432" y1="-2578.896" x2="244.5352" y2="-1319.3564" gradientTransform="matrix(1 0 0 1 0 3159.8765)">
					<stop  offset="0.4823" style="stop-color:#FFFFFF;stop-opacity:0"/>
					<stop  offset="0.6249" style="stop-color:#FFFFBC;stop-opacity:0.261"/>
					<stop  offset="0.9544" style="stop-color:#FFFF17;stop-opacity:0.9084"/>
					<stop  offset="1" style="stop-color:#FFFF00"/>
				</linearGradient>
				<polygon style="fill:url(#SVGID_00000078031681026356836260000010144975970772923536_);" points="811,1630.7 343.1,1630.7 
					343.1,750.4 930.9,750.4 431.2,1253.3 				"/>
				
					<linearGradient id="SVGID_00000093178547809614974470000017673778847291955586_" gradientUnits="userSpaceOnUse" x1="497.2909" y1="-950.5742" x2="1628.8409" y2="-950.5742" gradientTransform="matrix(1 0 0 1 0 3159.8765)">
					<stop  offset="0" style="stop-color:#D4145A"/>
					<stop  offset="0.1116" style="stop-color:#DF5185;stop-opacity:0.7368"/>
					<stop  offset="0.2231" style="stop-color:#E986AA;stop-opacity:0.5116"/>
					<stop  offset="0.3331" style="stop-color:#F0B2C8;stop-opacity:0.3274"/>
					<stop  offset="0.4411" style="stop-color:#F7D3E0;stop-opacity:0.1843"/>
					<stop  offset="0.5466" style="stop-color:#FBEBF1;stop-opacity:8.220000e-02"/>
					<stop  offset="0.6483" style="stop-color:#FEFAFB;stop-opacity:2.080000e-02"/>
					<stop  offset="0.7424" style="stop-color:#FFFFFF;stop-opacity:0"/>
				</linearGradient>
				<polygon style="fill:url(#SVGID_00000093178547809614974470000017673778847291955586_);" points="1628.8,2520 1117.6,2520 
					497.3,1898.6 1628.8,1898.6 				"/>
				
					<linearGradient id="SVGID_00000139972226115921292980000002454612223591991172_" gradientUnits="userSpaceOnUse" x1="1145.6399" y1="-140.626" x2="2131.9944" y2="-140.626" gradientTransform="matrix(1 0 0 1 0 3159.8765)">
					<stop  offset="0" style="stop-color:#FFFFFF;stop-opacity:0"/>
					<stop  offset="4.080000e-02" style="stop-color:#FFF3FF;stop-opacity:4.510000e-02"/>
					<stop  offset="0.1137" style="stop-color:#FFD4FF;stop-opacity:0.1655"/>
					<stop  offset="0.2102" style="stop-color:#FFA2FF;stop-opacity:0.3609"/>
					<stop  offset="0.3267" style="stop-color:#FF5DFF;stop-opacity:0.6315"/>
					<stop  offset="0.4589" style="stop-color:#FF07FF;stop-opacity:0.9719"/>
					<stop  offset="0.4694" style="stop-color:#FF00FF"/>
					<stop  offset="0.5221" style="stop-color:#FF00FF;stop-opacity:0.748"/>
					<stop  offset="0.5754" style="stop-color:#FF00FF;stop-opacity:0.5232"/>
					<stop  offset="0.6271" style="stop-color:#FF00FF;stop-opacity:0.3359"/>
					<stop  offset="0.6758" style="stop-color:#FF00FF;stop-opacity:0.19"/>
					<stop  offset="0.7209" style="stop-color:#FF00FF;stop-opacity:8.550000e-02"/>
					<stop  offset="0.761" style="stop-color:#FF00FF;stop-opacity:2.220000e-02"/>
					<stop  offset="0.792" style="stop-color:#FF00FF;stop-opacity:0"/>
				</linearGradient>
				<polygon style="fill:url(#SVGID_00000139972226115921292980000002454612223591991172_);" points="1933.8,3489.2 1177.2,3489.2 
					1632.1,3037.3 1145.6,2549.3 1933.8,2549.3 				"/>
				
					<linearGradient id="SVGID_00000145762727604468264300000017433883468044390818_" gradientUnits="userSpaceOnUse" x1="452.4823" y1="-2193.4697" x2="2025.4351" y2="-2193.4697" gradientTransform="matrix(1 0 0 1 0 3159.8765)">
					<stop  offset="0.7443" style="stop-color:#3FA9F5"/>
					<stop  offset="0.7629" style="stop-color:#66BBF7;stop-opacity:0.79"/>
					<stop  offset="0.7841" style="stop-color:#8DCCF9;stop-opacity:0.5827"/>
					<stop  offset="0.8056" style="stop-color:#AFDCFA;stop-opacity:0.4039"/>
					<stop  offset="0.8272" style="stop-color:#CAE8FC;stop-opacity:0.258"/>
					<stop  offset="0.8489" style="stop-color:#DFF2FD;stop-opacity:0.1448"/>
					<stop  offset="0.8706" style="stop-color:#EEF9FE;stop-opacity:6.420000e-02"/>
					<stop  offset="0.8925" style="stop-color:#F7FDFE;stop-opacity:1.600000e-02"/>
					<stop  offset="0.9148" style="stop-color:#FBFFFF;stop-opacity:0"/>
				</linearGradient>
				<polygon style="fill:url(#SVGID_00000145762727604468264300000017433883468044390818_);" points="1882.2,376.7 1605.1,99.5 
					851,853.6 452.5,1252.1 1033.7,1833.3 1882.2,984.8 				"/>
				
					<linearGradient id="SVGID_00000008852999977375829790000013047360074344148927_" gradientUnits="userSpaceOnUse" x1="-355.5153" y1="-404.4999" x2="1613.2405" y2="-404.4999" gradientTransform="matrix(1 0 0 1 0 3159.8765)">
					<stop  offset="0.1934" style="stop-color:#FBFFFF;stop-opacity:0"/>
					<stop  offset="0.2212" style="stop-color:#F9FEFE;stop-opacity:1.260000e-02"/>
					<stop  offset="0.2425" style="stop-color:#F4FEFE;stop-opacity:5.250000e-02"/>
					<stop  offset="0.2615" style="stop-color:#EBFDFD;stop-opacity:0.12"/>
					<stop  offset="0.2793" style="stop-color:#DFFCFB;stop-opacity:0.2153"/>
					<stop  offset="0.2962" style="stop-color:#D0FAF9;stop-opacity:0.3384"/>
					<stop  offset="0.3124" style="stop-color:#BCF8F7;stop-opacity:0.4897"/>
					<stop  offset="0.3281" style="stop-color:#A6F6F4;stop-opacity:0.6691"/>
					<stop  offset="0.343" style="stop-color:#8CF3F1;stop-opacity:0.8714"/>
					<stop  offset="0.3514" style="stop-color:#7CF2EF"/>
				</linearGradient>
				<polygon style="fill:url(#SVGID_00000008852999977375829790000013047360074344148927_);" points="348.7,1771 44.4,2075.4 
					44.4,2875.1 909,3739.8 1389.8,3259 1613.2,3035.5 				"/>
				
					<linearGradient id="SVGID_00000116217716651399947780000002448760272807045258_" gradientUnits="userSpaceOnUse" x1="0" y1="-1771.7882" x2="343.1225" y2="-1771.7882" gradientTransform="matrix(1 0 0 1 0 3159.8765)">
					<stop  offset="0.44" style="stop-color:#FFFFFF;stop-opacity:0"/>
					<stop  offset="0.6173" style="stop-color:#FFFFB9;stop-opacity:8.200000e-02"/>
					<stop  offset="0.9818" style="stop-color:#FFFF06;stop-opacity:0.2928"/>
					<stop  offset="0.9934" style="stop-color:#FFFF00;stop-opacity:0.3"/>
				</linearGradient>
				
					<rect y="1145.4" style="fill:url(#SVGID_00000116217716651399947780000002448760272807045258_);" width="343.1" height="485.3"/>
			</g>
		</g>
		<g id="content_3_bg_img_accent_lines_2">
			<line id="Line_99" class="st8" x1="339" y1="1929.8" x2="339" y2="1711.8"/>
			<line id="Line_101" class="st8" x1="401" y1="1929.8" x2="401" y2="1786.5"/>
			<line id="Line_103" class="st8" x1="463" y1="1929.8" x2="463" y2="1849.5"/>
			<line id="Line_100" class="st8" x1="370" y1="1929.8" x2="370" y2="1754.5"/>
			<line id="Line_102" class="st8" x1="432" y1="1929.8" x2="432" y2="1748.5"/>
			<line id="Line_98" class="st8" x1="308" y1="1929.8" x2="308" y2="1642.8"/>
		</g>
		<g id="content_3_bg_img_accent_lines">
			<line id="Line_48" class="st8" x1="345" y1="1190.5" x2="563" y2="1190.5"/>
			<line id="Line_79" class="st8" x1="345" y1="1252.5" x2="563" y2="1252.5"/>
			<line id="Line_81" class="st8" x1="345" y1="1314.5" x2="1092" y2="1314.5"/>
			<line id="Line_83" class="st8" x1="345" y1="1376.5" x2="632" y2="1376.5"/>
			<line id="Line_107" class="st8" x1="345" y1="1531.5" x2="632" y2="1531.5"/>
			<line id="Line_85" class="st8" x1="345" y1="1438.5" x2="423" y2="1438.5"/>
			<line id="Line_105" class="st8" x1="345" y1="1593.5" x2="423" y2="1593.5"/>
			<line id="Line_77" class="st8" x1="345" y1="1221.5" x2="632" y2="1221.5"/>
			<line id="Line_78" class="st8" x1="345" y1="1283.5" x2="632" y2="1283.5"/>
			<line id="Line_80" class="st8" x1="345" y1="1345.5" x2="632" y2="1345.5"/>
			<line id="Line_108" class="st8" x1="345" y1="1500.5" x2="632" y2="1500.5"/>
			<line id="Line_82" class="st8" x1="345" y1="1407.5" x2="632" y2="1407.5"/>
			<line id="Line_106" class="st8" x1="345" y1="1562.5" x2="632" y2="1562.5"/>
			<line id="Line_84" class="st8" x1="345" y1="1469.5" x2="446" y2="1469.5"/>
			<line id="Line_104" class="st8" x1="345" y1="1624.5" x2="446" y2="1624.5"/>
		</g>
		<g id="bg-img-hero-accent-lines">
			<line id="Line_38" class="st9" x1="867" y1="791.5" x2="1580.2" y2="78.3"/>
			<line id="Line_59" class="st9" x1="910" y1="791.5" x2="1127" y2="574.5"/>
			<line id="Line_96" class="st9" x1="1468" y1="231.5" x2="1586" y2="113.5"/>
			<line id="Line_42" class="st9" x1="734" y1="791.5" x2="1457.6" y2="67.9"/>
			<line id="Line_45" class="st9" x1="604" y1="791.5" x2="1323.1" y2="72.3"/>
			<line id="Line_39" class="st9" x1="826" y1="791.5" x2="1540.7" y2="76.8"/>
			<line id="Line_43" class="st9" x1="693" y1="791.5" x2="1449.8" y2="34.7"/>
			<line id="Line_46" class="st9" x1="563" y1="791.5" x2="882.4" y2="472.1"/>
			<line id="Line_53" class="st9" x1="460.2" y1="725.5" x2="713.6" y2="472.1"/>
			<line id="Line_75" class="st9" x1="420.2" y1="725.5" x2="673.6" y2="472.1"/>
			<line id="Line_76" class="st9" x1="460.2" y1="647.5" x2="635.6" y2="472.1"/>
			<line id="Line_40" class="st9" x1="780" y1="791.5" x2="1525.8" y2="45.7"/>
			<line id="Line_41" class="st9" x1="647" y1="791.5" x2="1383" y2="55.4"/>
			<line id="Line_44" class="st9" x1="517" y1="791.5" x2="836.4" y2="472.1"/>
			<line id="Line_44-2" class="st9" x1="475.3" y1="791.5" x2="794.6" y2="472.1"/>
			<line id="Line_47" class="st9" x1="378.2" y1="848.5" x2="754.6" y2="472.1"/>
		</g>
		<g id="content_4_bg_img_accent_lines">
			<line id="Line_60" class="st10" x1="1081.7" y1="1698.8" x2="815" y2="1965.5"/>
			<line id="Line_61" class="st8" x1="1038.7" y1="1698.8" x2="772" y2="1965.5"/>
			<line id="Line_62" class="st8" x1="1534" y1="1379.5" x2="946" y2="1967.5"/>
			<line id="Line_63" class="st8" x1="1295" y1="1748.5" x2="1078" y2="1965.5"/>
			<line id="Line_64" class="st8" x1="1436" y1="1735.5" x2="1239" y2="1932.5"/>
			<line id="Line_65" class="st8" x1="1122.7" y1="1698.8" x2="856" y2="1965.5"/>
			<line id="Line_66" class="st8" x1="1496" y1="1458.5" x2="989" y2="1965.5"/>
			<line id="Line_67" class="st8" x1="1478" y1="1606.5" x2="1152" y2="1932.5"/>
			<line id="Line_68" class="st8" x1="1436" y1="1814.5" x2="1318" y2="1932.5"/>
			<line id="Line_73" class="st8" x1="1476" y1="1814.5" x2="1358" y2="1932.5"/>
			<line id="Line_74" class="st8" x1="1455" y1="1883.5" x2="1406.6" y2="1932.5"/>
			<line id="Line_69" class="st8" x1="1586" y1="1281.5" x2="900" y2="1967.5"/>
			<line id="Line_70" class="st8" x1="1417" y1="1583.5" x2="1033" y2="1967.5"/>
			<line id="Line_71" class="st8" x1="1382" y1="1748.5" x2="1198" y2="1932.5"/>
			<line id="Line_72" class="st8" x1="1461" y1="1748.5" x2="1277" y2="1932.5"/>
		</g>
		<g id="Group_303">
			<line id="Line_119" class="st8" x1="1584.5" y1="3327.5" x2="837.5" y2="3327.5"/>
			<line id="Line_124" class="st8" x1="1584.5" y1="2986.5" x2="1455" y2="2986.5"/>
			<line id="Line_123" class="st8" x1="1584.5" y1="3451.5" x2="1366.5" y2="3451.5"/>
			<line id="Line_121" class="st8" x1="1584.5" y1="3389.5" x2="1366.5" y2="3389.5"/>
			<line id="Line_117" class="st8" x1="1584.5" y1="3265.5" x2="1378.1" y2="3265.5"/>
			<line id="Line_126" class="st8" x1="1584.5" y1="2924.5" x2="1290" y2="2924.5"/>
			<line id="Line_112" class="st8" x1="1584.5" y1="3110.5" x2="1378.1" y2="3110.5"/>
			<line id="Line_131" class="st8" x1="1584.5" y1="2769.5" x2="1378.1" y2="2769.5"/>
			<line id="Line_115" class="st8" x1="1584.5" y1="3203.5" x2="1506.5" y2="3203.5"/>
			<line id="Line_128" class="st8" x1="1584.5" y1="2862.5" x2="1506.5" y2="2862.5"/>
			<line id="Line_133" class="st8" x1="1584.5" y1="2707.5" x2="1506.5" y2="2707.5"/>
			<line id="Line_136" class="st8" x1="1584.5" y1="2614.5" x2="1506.5" y2="2614.5"/>
			<line id="Line_110" class="st8" x1="1584.5" y1="3048.5" x2="1506.5" y2="3048.5"/>
			<line id="Line_122" class="st8" x1="1584.5" y1="3420.5" x2="1297.5" y2="3420.5"/>
			<line id="Line_120" class="st8" x1="1584.5" y1="3358.5" x2="1297.5" y2="3358.5"/>
			<line id="Line_118" class="st8" x1="1584.5" y1="3296.5" x2="1378.1" y2="3296.5"/>
			<line id="Line_125" class="st8" x1="1584.5" y1="2955.5" x2="1502" y2="2955.5"/>
			<line id="Line_113" class="st8" x1="1584.5" y1="3141.5" x2="1378.1" y2="3141.5"/>
			<line id="Line_130" class="st8" x1="1584.5" y1="2800.5" x2="1502" y2="2800.5"/>
			<line id="Line_135" class="st8" x1="1584.5" y1="2645.5" x2="1502" y2="2645.5"/>
			<line id="Line_116" class="st8" x1="1584.5" y1="3234.5" x2="1378.1" y2="3234.5"/>
			<line id="Line_127" class="st8" x1="1584.5" y1="2893.5" x2="1187" y2="2893.5"/>
			<line id="Line_111" class="st8" x1="1584.5" y1="3079.5" x2="1378.1" y2="3079.5"/>
			<line id="Line_132" class="st8" x1="1584.5" y1="2738.5" x2="1378.1" y2="2738.5"/>
			<line id="Line_114" class="st8" x1="1584.5" y1="3172.5" x2="1483.5" y2="3172.5"/>
			<line id="Line_129" class="st8" x1="1584.5" y1="2831.5" x2="1483.5" y2="2831.5"/>
			<line id="Line_134" class="st8" x1="1584.5" y1="2676.5" x2="1483.5" y2="2676.5"/>
			<line id="Line_109" class="st8" x1="1584.5" y1="3017.5" x2="1483.5" y2="3017.5"/>
		</g>
		<g id="Group_304">
			<line id="Line_137" class="st11" x1="1025" y1="3926.5" x2="306.5" y2="3207.5"/>
			<line id="Line_138" class="st11" x1="1068" y1="3926.5" x2="306.5" y2="3164.5"/>
			<line id="Line_139" class="st11" x1="892.5" y1="3926.5" x2="304.5" y2="3338.5"/>
			<line id="Line_140" class="st11" x1="523.5" y1="3687.5" x2="306.5" y2="3470.5"/>
			<line id="Line_142" class="st11" x1="985" y1="3926.5" x2="306.5" y2="3248.5"/>
			<line id="Line_143" class="st11" x1="813.5" y1="3888.5" x2="306.5" y2="3381.5"/>
			<line id="Line_144" class="st11" x1="665.5" y1="3870.5" x2="339.5" y2="3544.5"/>
			<line id="Line_148" class="st11" x1="939" y1="3926.5" x2="304.5" y2="3292.5"/>
			<line id="Line_149" class="st11" x1="688.5" y1="3809.5" x2="304.5" y2="3425.5"/>
			<line id="Line_150" class="st11" x1="523.5" y1="3774.5" x2="339.5" y2="3590.5"/>
		</g>
		<g id="Group_305">
			<line id="Line_141" class="st8" x1="1103.5" y1="3577.5" x2="911" y2="3770.5"/>
			<line id="Line_145" class="st8" x1="1103.5" y1="3656.5" x2="951" y2="3809.5"/>
			<line id="Line_146" class="st8" x1="1143.5" y1="3656.5" x2="971" y2="3828.5"/>
			<line id="Line_147" class="st8" x1="1122.5" y1="3725.5" x2="994" y2="3853.5"/>
			<line id="Line_152" class="st8" x1="1271" y1="3617.5" x2="1015" y2="3873.5"/>
			<line id="Line_153" class="st8" x1="1104" y1="3834.5" x2="1039.2" y2="3898.5"/>
			<line id="Line_151" class="st8" x1="1128.5" y1="3590.5" x2="930" y2="3789.5"/>
		</g>
		<g id="Group_302">
			<line id="Line_163" class="st12" x1="304.5" y1="2575.5" x2="408" y2="2575.5"/>
			<line id="Line_159" class="st12" x1="304.5" y1="2451.5" x2="1025" y2="2451.5"/>
			<line id="Line_160" class="st12" x1="304.5" y1="2513.5" x2="900" y2="2513.5"/>
			<line id="Line_165" class="st12" x1="304.5" y1="2637.5" x2="510.8" y2="2637.5"/>
			<line id="Line_161" class="st12" x1="304.5" y1="2482.5" x2="1051" y2="2482.5"/>
			<line id="Line_162" class="st12" x1="304.5" y1="2544.5" x2="599" y2="2544.5"/>
			<line id="Line_164" class="st12" x1="304.5" y1="2606.5" x2="510.8" y2="2606.5"/>
			<line id="Line_169" class="st12" x1="304.5" y1="2761.5" x2="510.8" y2="2761.5"/>
			<line id="Line_166" class="st12" x1="304.5" y1="2668.5" x2="510.8" y2="2668.5"/>
			<line id="Line_168" class="st12" x1="304.5" y1="2730.5" x2="405.5" y2="2730.5"/>
			<line id="Line_167" class="st12" x1="304.5" y1="2699.5" x2="382.5" y2="2699.5"/>
		</g>
	</g>
</g>
</svg>
