<?xml version="1.0" encoding="UTF-8"?><svg id="Layer_2" xmlns="http://www.w3.org/2000/svg" viewBox="0 0 367.0187 234.8641"><defs><style>.cls-1{fill:#0400a2;}.cls-2{fill:#fff35f;}.cls-3{fill:#7cf2ef;}.cls-4{fill:#e25c39;}.cls-5{fill:#1818a0;}.cls-6{stroke:#000;}.cls-6,.cls-7{fill:none;stroke-miterlimit:10;}.cls-7{stroke:#999;}</style></defs><g id="Layer_3"><g><g><path class="cls-3" d="M92.5335,21.6098L27.1096,114.2587c-9.536-10.3368-15.3777-24.1494-15.3777-39.3271,0-32.0112,25.9693-57.9806,57.9988-57.9806,8.0073,0,15.6325,1.6197,22.5662,4.5496,.0729,.0364,.1638,.0728,.2366,.1092Z"/><path class="cls-4" d="M131.3693,182.9219h-6.6061v.1821l-80.9109,.3276c-7.8254,.0364-15.7599,.0545-23.3124-1.9473-7.5706-2.02-14.8318-6.3513-18.7081-13.1575-1.187-2.0914-1.3595-2.7451-1.8319-5.0834,2.0047-2.8334,21.0884-29.8622,21.0884-29.8622,0,0,4.3573,5.1545,11.7529,5.1545h47.3642c26.7163,0,51.1638,17.4492,51.1638,44.3862Z"/><path class="cls-2" d="M28.5197,189.1069c-.0313,.6269-.0563,1.2552-.0563,1.8886,0,24.228,23.1658,43.8685,51.7421,43.8685s51.7421-19.6405,51.7421-43.8685c0-.6334-.025-1.2617-.0563-1.8886H28.5197Z"/><path class="cls-5" d="M158.922,23.9028c0,11.92-9.6634,21.5835-21.5836,21.5835s-21.5835-9.6634-21.5835-21.5835c0-3.6761,.9281-7.1338,2.5296-10.1548l-2.02,1.1647c-1.8745,1.5286-2.839,2.5296-4.1311,4.5496-2.9299,4.5679-3.1483,10.446-.3093,15.5598-.0546-.0545-.1456-.1274-.273-.2366,10.0092,10.4096,16.1603,24.5681,16.1603,40.1461,0,32.0296-25.9694,57.9806-57.9806,57.9806-14.6135,0-27.9712-5.3867-38.1625-14.3223L98.0841,24.376q-.0181-.0182-.0363-.0364c5.5323-7.3886,7.2248-10.446,11.4469-16.0329C116.2463,1.1,128.4939-.738,137.4113,.2447c12.3568,1.3831,21.5107,11.7381,21.5107,23.6581Z"/><path class="cls-1" d="M111.8786,35.0949h-.0182c-.0181-.0181-.0181-.0545-.0363-.0728,.0182,.0182,.0363,.0364,.0545,.0728Z"/></g><path d="M167.2866,154.9718h-13.0688l-3.3283,11.5052c-.2916,1.0036-.4351,1.8588-.4314,2.5666,.0092,2.0643,1.9374,3.0863,5.7845,3.0688l.0046,.881-13.4613,.0627-.0046-.881c3.7634-.0175,6.2196-2.0265,7.3677-6.0271l10.1963-35.092-.6844-2.2901c-1.2907-3.9876-3.757-5.8912-7.4146-5.8747l-.0083-.6703,15.3642,.0338c2.2787-.0111,4.4164,3.2447,5.3352,6.0983l10.2573,30.6325c1.5322,3.8276,1.7291,6.2529,5.5459,6.2354l1.9608,.6017-27.8514,.1717-.0546-.633c8.0066-.0697,5.3928-7.0096,4.4915-10.3895Zm-.2346-.6696l-6.2616-21.8979-6.4341,21.8979h12.6956Z"/><path d="M214.1225,165.7938c-5.2666,0-8.9838,2.6531-11.1516,7.9592-1.3641,3.3613-2.0443,9.1725-2.0443,17.4358,0,7.1765,.6503,12.938,1.9508,17.2837,1.6111,5.407,5.2666,8.1105,10.9664,8.1105,6.0712,0,11.6784-1.7935,16.8205-5.3822v.986c-5.1422,3.4366-10.7493,5.1549-16.8205,5.1549-8.24,0-16.6187-2.5642-21.7609-7.6183-5.1422-5.054-7.7132-11.2445-7.7132-18.5722,0-7.2269,2.602-13.3925,7.8068-18.497,5.2039-5.1037,13.6126-7.6183,21.8535-7.6183,2.9108,0,5.436,.3289,7.5738,.9852,1.9817,.6322,3.8407,.948,5.5763,.948,1.7655,0,2.6478-.5182,2.6478-1.5546h.93l.8364,11.6743h-.93c0-.8083-.2321-1.7679-.697-2.8804-1.3941-3.3101-3.8875-5.6599-7.4803-7.05-2.3549-.91-5.143-1.3645-8.3644-1.3645Z"/><g><g><path d="M131.1913,87.5548h16.2868v.5188c-2.7146,0-4.0717,1.211-4.0717,3.6322v26.9819c0,2.4217,1.3571,3.6322,4.0717,3.6322v.5188h-16.2868v-.5188c2.7141,0,4.0717-1.2105,4.0717-3.6322v-26.9819c0-2.4212-1.3576-3.6322-4.0717-3.6322v-.5188Z"/><path d="M147.4782,87.5548h17.3049c4.6485,0,8.3554,.8997,11.1212,2.6983,2.7652,1.7991,4.1481,4.3934,4.1481,7.7832,0,1.9732-.6974,3.7567-2.091,5.3488-1.3936,1.5924-3.2802,2.8214-5.6596,3.6866l5.5315,11.7345c.5429,1.137,1.0692,1.9639,1.5777,2.4804,.6785,.6892,1.7305,1.0334,3.1559,1.0334v.5188h-9.6527c-1.285,0-2.4849-1.2797-3.6009-3.8397l-5.0392-10.6891h-4.5807v10.3778c0,2.4217,1.3571,3.6322,4.0717,3.6322v.5188h-16.2868v-.5188c2.7141,0,4.0717-1.2105,4.0717-3.6322v-27.4488c-.1017-2.1102-1.4593-3.1654-4.0717-3.1654v-.5188Zm12.2151,.5188v19.7175h5.0898c4.7502,0,7.1253-3.2859,7.1253-9.8586s-2.3751-9.8589-7.1253-9.8589h-5.0898Z"/><path d="M202.6864,111.9422h-11.5839l-2.2815,7.0447c-.1889,.5902-.283,1.0937-.283,1.5104,0,1.2155,1.2306,1.8227,3.6934,1.8227v.5188h-8.6164v-.5188c2.409,0,3.9867-1.176,4.7335-3.5284l8.2693-25.8394-.4315-1.3501c-.8141-2.3519-2.3918-3.5284-4.733-3.5284v-.5188h9.8222c1.4582,0,2.5952,1.2803,3.4099,3.8403l8.7547,27.397c.7463,2.3519,2.3412,3.5279,4.7841,3.5279v.5188h-16.2857v-.5188c2.2051,0,3.3082-.5879,3.3082-1.7643,0-.3976-.1017-.9164-.3056-1.5565l-2.2546-7.0569Zm-.1657-.5188l-5.6219-17.6761-5.6838,17.6761h11.3057Z"/><path d="M220.2608,87.5548h28.5025v7.7832h-.509c-.3056-4.8427-2.4268-7.2644-6.3623-7.2644h-9.416v14.5288h4.5807c2.3751,0,3.5627-1.3835,3.5627-4.151h.509v8.8209h-.509c0-2.767-1.1876-4.151-3.5627-4.151h-4.5807v15.5665c0,2.4217,1.3571,3.6322,4.0717,3.6322v.5188h-16.2868v-.5188c2.7141,0,4.0717-1.2105,4.0717-3.6322v-26.9819c0-2.4212-1.3576-3.6322-4.0717-3.6322v-.5188Z"/><path d="M248.5354,87.5548h28.5025v7.7832h-.509c-.3056-4.8427-2.4268-7.2644-6.3623-7.2644h-9.416v14.5288h4.5807c2.3751,0,3.5627-1.3835,3.5627-4.151h.509v8.8209h-.509c0-2.767-1.1876-4.151-3.5627-4.151h-4.5807v15.5665c0,2.4217,1.3571,3.6322,4.0717,3.6322v.5188h-16.2868v-.5188c2.7141,0,4.0717-1.2105,4.0717-3.6322v-26.9819c0-2.4212-1.3576-3.6322-4.0717-3.6322v-.5188Z"/><path d="M290.7961,91.3889l7.1216,14.3467,6.9031-14.3467c.3126-.6216,.4692-1.1566,.4692-1.6056,0-1.1396-1.293-1.7097-3.8791-1.7097v-.5188h8.6648v.5188c-1.4254,0-2.4774,.3463-3.1559,1.038-.4751,.4843-1.0014,1.3145-1.5777,2.491l-6.8719,14.1649,.0506,12.9202c0,2.4217,1.3576,3.6322,4.0722,3.6322v.5188h-16.2873v-.5188c2.7141,0,4.0717-1.2105,4.0717-3.6322l-.0506-9.8589-8.5518-17.2263c-1.1198-2.3525-2.6974-3.529-4.7335-3.529v-.5188h10.1365c1.2903,0,2.4967,1.2781,3.6181,3.8342Z"/></g><line class="cls-6" x1="302.5931" y1="122.5746" x2="102.3973" y2="122.5746"/></g><line class="cls-7" x1="102.3973" y1="122.5746" x2="50.1978" y2="122.5746"/><line class="cls-7" x1="127.7776" y1="166.2042" x2="63.6816" y2="166.2042"/><line class="cls-7" x1="125.8167" y1="211.7226" x2="77.4097" y2="211.7226"/><g><path d="M188.273,130.7592l15.8138-.0732c4.062-.0188,7.4084,1.158,10.0402,3.5293,2.6312,2.3719,3.9549,5.2899,3.9711,8.7536,.0156,3.4647-1.2806,6.3952-3.8898,8.7907-2.6092,2.3961-5.9448,3.6036-10.0068,3.6224l-4.6512,.0215,.0285,6.174c.0113,2.4009,1.257,3.5955,3.7376,3.5842l.0027,.5144-14.8835,.0689-.0027-.5144c2.48-.0113,3.7155-1.2177,3.7042-3.6186l-.1259-27.217c-.1028-2.0921-1.3479-3.1322-3.7354-3.1209l-.0027-.5149Zm11.1653,.4633l.1092,23.6661,4.6512-.0215c2.698-.0124,4.4613-.9465,5.2899-2.8029,.798-1.7186,1.1876-4.7389,1.1676-9.0608-.0204-4.3214-.438-7.3379-1.2516-9.0495-.8459-1.8478-2.6173-2.7658-5.3152-2.7534l-4.6512,.0221Z"/><path d="M218.9709,130.6172l15.8133-.0732c4.062-.0188,7.4084,1.1574,10.0402,3.5288,2.6312,2.3719,3.9549,5.2899,3.9711,8.7541,.0156,3.4642-1.2806,6.3952-3.8898,8.7902-2.6092,2.3966-5.9448,3.6041-10.0068,3.6229l-4.6512,.0215,.0285,6.174c.0113,2.4009,1.257,3.5955,3.7376,3.5842l.0027,.5144-14.8829,.0689-.0027-.5144c2.48-.0118,3.7155-1.2177,3.7042-3.6186l-.1259-27.2175c-.1028-2.0915-1.3479-3.1317-3.7354-3.1209l-.0027-.5144Zm11.1648,.4628l.1092,23.6667,4.6512-.0215c2.698-.0129,4.4607-.947,5.2899-2.8029,.798-1.7186,1.1876-4.7389,1.1676-9.0608-.0204-4.3214-.438-7.3384-1.2516-9.0495-.8459-1.8478-2.6173-2.7658-5.3152-2.7534l-4.6512,.0215Z"/><path d="M262.557,154.5965l-10.5858,.0495-2.0517,6.9946c-.1706,.5865-.2545,1.0859-.2524,1.4991,.0054,1.2053,1.1332,1.8021,3.3835,1.7918l.0027,.5144-7.8738,.0361-.0027-.5144c2.2013-.0102,3.638-1.1827,4.3095-3.5185l7.438-25.656-.4003-1.3371c-.7549-2.3283-2.2019-3.4879-4.3413-3.4782l-.0027-.5144,8.9758-.042c1.3328-.0059,2.3778,1.2586,3.1338,3.7935l8.1262,27.1287c.6925,2.3288,2.1556,3.4879,4.3876,3.4777l.0027,.5144-14.8819,.0689-.0027-.5144c2.0151-.0091,3.0203-.5967,3.0149-1.7633-.0016-.3944-.0974-.9083-.2857-1.5422l-2.0937-6.9881Zm-.1534-.5133l-5.2189-17.5029-5.1129,17.5508,10.3318-.0479Z"/><path d="M278.5048,130.3411l15.8138-.0732c4.2477-.0199,7.6398,.8566,10.1752,2.628,2.5355,1.7725,3.8113,4.3386,3.8269,7.7,.0091,1.9565-.6199,3.7279-1.8865,5.3125-1.2661,1.5847-2.9848,2.8115-5.1549,3.6794l5.1091,11.6119c.501,1.1251,.9858,1.943,1.4528,2.4531,.6231,.6801,1.5863,1.017,2.8884,1.0111l.0027,.5144-8.8209,.0409c-1.1741,.0054-2.2766-1.2586-3.3082-3.7924l-4.6545-10.5772-4.1863,.0194,.0479,10.2904c.0113,2.4009,1.257,3.5955,3.7376,3.5842l.0027,.5144-14.8835,.0689-.0027-.5144c2.48-.0113,3.7155-1.2177,3.7042-3.6186l-.1259-27.2175c-.1028-2.0915-1.3479-3.1317-3.7354-3.1204l-.0027-.5149Zm11.1653,.4628l.0904,19.5508,4.6512-.0215c4.3407-.0204,6.4969-3.2882,6.4667-9.8056-.0301-6.5168-2.2164-9.7652-6.5571-9.7453l-4.6512,.0215Z"/><path d="M312.4586,130.184l26.0461-.1211,.0361,7.7172-.4654,.0022c-.3013-4.8003-2.2503-7.1921-5.8474-7.1754l-8.604,.0398,.0667,14.4057,4.139-.0194c2.1706-.0097,3.2495-1.3866,3.2366-4.1309l.4649-.0022,.0409,8.7466-.4649,.0022c-.0129-2.7437-1.1047-4.1115-3.2753-4.1013l-4.139,.0188,.0882,19.037,9.0695-.042c3.5966-.0167,5.5235-2.4262,5.7807-7.2303l.4649-.0022,.0361,7.7178-26.511,.1232-.0027-.5144c2.3875-.0113,3.6229-1.0633,3.7063-3.1559l-.1259-27.217c-.0113-2.4009-1.2575-3.5955-3.7376-3.5842l-.0027-.5144Z"/><path d="M360.7476,164.4322c3.5869-.0167,5.5095-2.4268,5.7672-7.2303l.4649-.0022,.0361,7.7178-25.558,.1184-.0027-.5144c2.2922-.0108,3.5277-.925,3.7085-2.7442l-.1281-27.6286c-.0113-2.4004-1.2726-3.5955-3.7844-3.5837l-.0027-.5144,14.9303-.0694,.0027,.5149c-2.4806,.0113-3.7155,1.2177-3.7042,3.6181l.1404,30.3556,8.13-.0377Z"/><line class="cls-6" x1="367.0157" y1="164.7808" x2="127.7421" y2="166.1998"/></g><path d="M247.6465,175.7044c4.9117,0,8.9737,1.7612,12.1855,5.2845,3.2113,3.5229,4.8175,7.8082,4.8175,12.856s-1.6062,9.3331-4.8175,12.856c-3.2118,3.5229-7.2739,5.2845-12.1855,5.2845s-8.9737-1.7617-12.185-5.2845c-3.2118-3.5229-4.8175-7.8082-4.8175-12.856s1.5868-9.3331,4.761-12.856c3.1736-3.5234,7.2545-5.2845,12.2415-5.2845Zm0,.5257c-2.72,0-4.7228,1.1924-6.0072,3.5756-1.285,2.4187-1.9269,7.0984-1.9269,14.0392s.6419,11.6205,1.9269,14.0392c1.2844,2.3837,3.2872,3.575,6.0072,3.575s4.7228-1.1913,6.0077-3.575c1.2844-2.4187,1.9269-7.0984,1.9269-14.0392s-.6425-11.6205-1.9269-14.0392c-1.285-2.3832-3.2872-3.5756-6.0077-3.5756Z"/><circle cx="266.6924" cy="209.1918" r="2.8723"/></g></g></svg>