<?xml version="1.0" encoding="UTF-8"?><svg id="Layer_2" xmlns="http://www.w3.org/2000/svg" viewBox="0 0 7881.8223 5783.3738"><defs><style>.cls-1{fill:#3fa9f5;}</style></defs><g id="Layer_10"><path class="cls-1" d="m3375.5261,1040.0477c427.7816-303.5339,596.5282-424.046,1276.5286-913.6586,546.4544-419.2407,1564.2243,295.5461,834.1185,816.4962l-642.0709,458.1349c701.0167-461.4842,1245.4008,414.0189,740.2478,767.2244,770.2742-537.7813,1075.7303-754.1311,1131.0939-793.7755,1004.4183-719.2364,1768.7977,195.0896,508.7559,1096.948-1260.0418,901.8584-1454.9257,1001.4092-1873.404,1271.9886,375.0589-238.9687,948.105,362.863,440.7787,729.895-1021.0302,738.678-686.8197,489.6212-1170.6232,842.5928-439.1413,320.3871-1091.6094-356.3245-604.2266-705.7049,103.0014-73.8366-1433.2027,990.6003-1509.8882,1043.7118-623.0218,431.4978-1319.6963-301.3689-429.862-938.2561,889.8343-636.8872-836.2534,598.6203-1195.9421,855.9799-650.2133,465.2317-1293.7-322.9904-543.6048-894.3802,1126.5491-858.156,1030.885-801.5666,1670.6576-1254.1739-513.0657,367.0196-1345.5296-355.1694-437.3872-1062.2428,297.3165-231.4886-63.8326,50.705,261.0101-203.3718-324.9121,254.0768-839.1741-241.2471-390.661-572.1445,651.5689-480.7049,942.721-689.0644,1302.4731-932.2281,636.6868-430.3493,1050.4924,89.3811,632.0058,386.9648Z"/></g></svg>