<?xml version="1.0" encoding="UTF-8"?><svg id="Layer_2" xmlns="http://www.w3.org/2000/svg" xmlns:xlink="http://www.w3.org/1999/xlink" viewBox="0 0 1933.7893 3926.8765"><defs><style>.cls-1{fill:url(#linear-gradient);}.cls-2{fill:#fff;}.cls-3{fill:url(#linear-gradient-3);}.cls-4{fill:url(#linear-gradient-4);}.cls-5{fill:url(#linear-gradient-2);}.cls-6{fill:url(#linear-gradient-6);}.cls-7{fill:url(#linear-gradient-7);}.cls-8{fill:url(#linear-gradient-5);}.cls-9{stroke:#d6d6d6;}.cls-9,.cls-10,.cls-11,.cls-12,.cls-13{fill:none;}.cls-10{stroke:#d9d9d9;}.cls-11{stroke:#c7c7c7;}.cls-12{stroke:#c9c9c9;}.cls-13{stroke:#fff;}</style><linearGradient id="linear-gradient" x1="893.199" y1="3581.5618" x2="1580.159" y2="3581.5618" gradientTransform="translate(0 3927.8765) scale(1 -1)" gradientUnits="userSpaceOnUse"><stop offset=".0017" stop-color="#fff" stop-opacity="0"/><stop offset=".0864" stop-color="#ffceff" stop-opacity=".113"/><stop offset=".2172" stop-color="#ff8fff" stop-opacity=".2614"/><stop offset=".3538" stop-color="#ff5bff" stop-opacity=".3843"/><stop offset=".4954" stop-color="#f3f" stop-opacity=".4794"/><stop offset=".6443" stop-color="#ff16ff" stop-opacity=".547"/><stop offset=".8052" stop-color="#ff05ff" stop-opacity=".5872"/><stop offset="1" stop-color="#f0f" stop-opacity=".6"/></linearGradient><linearGradient id="linear-gradient-2" x1="888.9432" y1="3346.8961" x2="244.5352" y2="2087.3565" gradientTransform="translate(0 3927.8765) scale(1 -1)" gradientUnits="userSpaceOnUse"><stop offset=".4823" stop-color="#fff" stop-opacity="0"/><stop offset=".6249" stop-color="#ffffbc" stop-opacity=".261"/><stop offset=".9544" stop-color="#ffff17" stop-opacity=".9084"/><stop offset="1" stop-color="#ff0"/></linearGradient><linearGradient id="linear-gradient-3" x1="497.2909" y1="1718.5742" x2="1628.841" y2="1718.5742" gradientTransform="translate(0 3927.8765) scale(1 -1)" gradientUnits="userSpaceOnUse"><stop offset="0" stop-color="#d4145a"/><stop offset=".1116" stop-color="#df5185" stop-opacity=".7368"/><stop offset=".2231" stop-color="#e986aa" stop-opacity=".5116"/><stop offset=".3331" stop-color="#f0b2c8" stop-opacity=".3274"/><stop offset=".4411" stop-color="#f7d3e0" stop-opacity=".1843"/><stop offset=".5466" stop-color="#fbebf1" stop-opacity=".0822"/><stop offset=".6483" stop-color="#fefafb" stop-opacity=".0208"/><stop offset=".7424" stop-color="#fff" stop-opacity="0"/></linearGradient><linearGradient id="linear-gradient-4" x1="1145.6399" y1="908.626" x2="2131.9943" y2="908.626" gradientTransform="translate(0 3927.8765) scale(1 -1)" gradientUnits="userSpaceOnUse"><stop offset="0" stop-color="#fff" stop-opacity="0"/><stop offset=".0408" stop-color="#fff3ff" stop-opacity=".0451"/><stop offset=".1137" stop-color="#ffd4ff" stop-opacity=".1655"/><stop offset=".2102" stop-color="#ffa2ff" stop-opacity=".3609"/><stop offset=".3267" stop-color="#ff5dff" stop-opacity=".6315"/><stop offset=".4589" stop-color="#ff07ff" stop-opacity=".9719"/><stop offset=".4694" stop-color="#f0f"/><stop offset=".5221" stop-color="#f0f" stop-opacity=".748"/><stop offset=".5754" stop-color="#f0f" stop-opacity=".5232"/><stop offset=".6271" stop-color="#f0f" stop-opacity=".3359"/><stop offset=".6758" stop-color="#f0f" stop-opacity=".19"/><stop offset=".7209" stop-color="#f0f" stop-opacity=".0855"/><stop offset=".761" stop-color="#f0f" stop-opacity=".0222"/><stop offset=".792" stop-color="#f0f" stop-opacity="0"/></linearGradient><linearGradient id="linear-gradient-5" x1="452.4823" y1="2961.4698" x2="2025.435" y2="2961.4698" gradientTransform="translate(0 3927.8765) scale(1 -1)" gradientUnits="userSpaceOnUse"><stop offset=".7443" stop-color="#3fa9f5"/><stop offset=".7629" stop-color="#66bbf7" stop-opacity=".79"/><stop offset=".7841" stop-color="#8dccf9" stop-opacity=".5827"/><stop offset=".8056" stop-color="#afdcfa" stop-opacity=".4039"/><stop offset=".8272" stop-color="#cae8fc" stop-opacity=".258"/><stop offset=".8489" stop-color="#dff2fd" stop-opacity=".1448"/><stop offset=".8706" stop-color="#eef9fe" stop-opacity=".0642"/><stop offset=".8925" stop-color="#f7fdfe" stop-opacity=".016"/><stop offset=".9148" stop-color="#fbffff" stop-opacity="0"/></linearGradient><linearGradient id="linear-gradient-6" x1="-355.5153" y1="1172.4999" x2="1613.2405" y2="1172.4999" gradientTransform="translate(0 3927.8765) scale(1 -1)" gradientUnits="userSpaceOnUse"><stop offset=".1934" stop-color="#fbffff" stop-opacity="0"/><stop offset=".2212" stop-color="#f9fefe" stop-opacity=".0126"/><stop offset=".2425" stop-color="#f4fefe" stop-opacity=".0525"/><stop offset=".2615" stop-color="#ebfdfd" stop-opacity=".12"/><stop offset=".2793" stop-color="#dffcfb" stop-opacity=".2153"/><stop offset=".2962" stop-color="#d0faf9" stop-opacity=".3384"/><stop offset=".3124" stop-color="#bcf8f7" stop-opacity=".4897"/><stop offset=".3281" stop-color="#a6f6f4" stop-opacity=".6691"/><stop offset=".343" stop-color="#8cf3f1" stop-opacity=".8714"/><stop offset=".3514" stop-color="#7cf2ef"/></linearGradient><linearGradient id="linear-gradient-7" x1="0" y1="2539.7882" x2="343.1225" y2="2539.7882" gradientTransform="translate(0 3927.8765) scale(1 -1)" gradientUnits="userSpaceOnUse"><stop offset=".44" stop-color="#fff" stop-opacity="0"/><stop offset=".6173" stop-color="#ffffb9" stop-opacity=".082"/><stop offset=".9818" stop-color="#ffff06" stop-opacity=".2928"/><stop offset=".9934" stop-color="#ff0" stop-opacity=".3"/></linearGradient></defs><g id="bg-img"><g><rect class="cls-2" x="304.4606" width="1281.5001" height="3888.5229"/><g id="copy"><g><polygon class="cls-1" points="1090.4191 591.6633 893.199 591.6633 893.199 100.9661 1580.159 100.9661 1090.4191 591.6633"/><polygon class="cls-5" points="811.0001 1630.7446 343.1225 1630.7446 343.1225 750.4053 930.9372 750.4053 431.2491 1253.2811 811.0001 1630.7446"/><polygon class="cls-3" points="1628.841 2519.9632 1117.5562 2519.9632 497.2909 1898.6414 1628.841 1898.6414 1628.841 2519.9632"/><polygon class="cls-4" points="1933.7893 3489.1768 1177.2455 3489.1768 1632.1066 3037.3144 1145.6399 2549.3241 1933.7893 2549.3241 1933.7893 3489.1768"/><polygon class="cls-8" points="1882.2308 376.6513 1605.0794 99.5 850.9723 853.607 452.4823 1252.0973 1033.6987 1833.3134 1882.2308 984.7815 1882.2308 376.6513"/><polygon class="cls-6" points="348.7458 1770.9902 44.3671 2075.3689 44.3671 2875.1444 908.9623 3739.763 1389.7519 3258.9737 1613.2405 3035.4851 348.7458 1770.9902"/><rect class="cls-7" x="0" y="1145.4321" width="343.1225" height="485.3123"/></g></g><g id="content_3_bg_img_accent_lines_2"><line id="Line_99" class="cls-9" x1="338.9607" y1="1929.783" x2="338.9607" y2="1711.783"/><line id="Line_101" class="cls-9" x1="400.9607" y1="1929.783" x2="400.9607" y2="1786.5"/><line id="Line_103" class="cls-9" x1="462.9607" y1="1929.783" x2="462.9607" y2="1849.5"/><line id="Line_100" class="cls-9" x1="369.9607" y1="1929.783" x2="369.9607" y2="1754.5"/><line id="Line_102" class="cls-9" x1="431.9607" y1="1929.783" x2="431.9607" y2="1748.5"/><line id="Line_98" class="cls-9" x1="307.9607" y1="1929.783" x2="307.9607" y2="1642.783"/></g><g id="content_3_bg_img_accent_lines"><line id="Line_48" class="cls-9" x1="344.9607" y1="1190.5" x2="562.9607" y2="1190.5"/><line id="Line_79" class="cls-9" x1="344.9607" y1="1252.5" x2="562.9607" y2="1252.5"/><line id="Line_81" class="cls-9" x1="344.9607" y1="1314.5" x2="1091.9607" y2="1314.5"/><line id="Line_83" class="cls-9" x1="344.9607" y1="1376.5" x2="631.9607" y2="1376.5"/><line id="Line_107" class="cls-9" x1="344.9607" y1="1531.5" x2="631.9607" y2="1531.5"/><line id="Line_85" class="cls-9" x1="344.9607" y1="1438.5" x2="422.9607" y2="1438.5"/><line id="Line_105" class="cls-9" x1="344.9607" y1="1593.5" x2="422.9607" y2="1593.5"/><line id="Line_77" class="cls-9" x1="344.9607" y1="1221.5" x2="631.9607" y2="1221.5"/><line id="Line_78" class="cls-9" x1="344.9607" y1="1283.5" x2="631.9607" y2="1283.5"/><line id="Line_80" class="cls-9" x1="344.9607" y1="1345.5" x2="631.9607" y2="1345.5"/><line id="Line_108" class="cls-9" x1="344.9607" y1="1500.5" x2="631.9607" y2="1500.5"/><line id="Line_82" class="cls-9" x1="344.9607" y1="1407.5" x2="631.9607" y2="1407.5"/><line id="Line_106" class="cls-9" x1="344.9607" y1="1562.5" x2="631.9607" y2="1562.5"/><line id="Line_84" class="cls-9" x1="344.9607" y1="1469.5" x2="445.9607" y2="1469.5"/><line id="Line_104" class="cls-9" x1="344.9607" y1="1624.5" x2="445.9607" y2="1624.5"/></g><g id="bg-img-hero-accent-lines"><line id="Line_38" class="cls-12" x1="866.9607" y1="791.5" x2="1580.159" y2="78.3017"/><line id="Line_59" class="cls-12" x1="909.9607" y1="791.5" x2="1126.9607" y2="574.5"/><line id="Line_96" class="cls-12" x1="1467.9607" y1="231.5" x2="1585.9607" y2="113.5"/><line id="Line_42" class="cls-12" x1="733.9607" y1="791.5" x2="1457.5908" y2="67.8699"/><line id="Line_45" class="cls-12" x1="603.9607" y1="791.5" x2="1323.1191" y2="72.3416"/><line id="Line_39" class="cls-12" x1="825.9607" y1="791.5" x2="1540.6668" y2="76.7938"/><line id="Line_43" class="cls-12" x1="692.9607" y1="791.5" x2="1449.7805" y2="34.6802"/><line id="Line_46" class="cls-12" x1="562.9607" y1="791.5" x2="882.3538" y2="472.1069"/><line id="Line_53" class="cls-12" x1="460.1607" y1="725.5" x2="713.5538" y2="472.1069"/><line id="Line_75" class="cls-12" x1="420.1607" y1="725.5" x2="673.5538" y2="472.1069"/><line id="Line_76" class="cls-12" x1="460.1607" y1="647.5" x2="635.5538" y2="472.1069"/><line id="Line_40" class="cls-12" x1="779.9607" y1="791.5" x2="1525.8035" y2="45.6571"/><line id="Line_41" class="cls-12" x1="646.9607" y1="791.5" x2="1383.0328" y2="55.4278"/><line id="Line_44" class="cls-12" x1="516.9607" y1="791.5" x2="836.3538" y2="472.1069"/><line id="Line_44-2" class="cls-12" x1="475.2565" y1="791.5" x2="794.6496" y2="472.1069"/><line id="Line_47" class="cls-12" x1="378.1607" y1="848.5" x2="754.5538" y2="472.1069"/></g><g id="content_4_bg_img_accent_lines"><line id="Line_60" class="cls-10" x1="1081.6695" y1="1698.837" x2="814.9607" y2="1965.5459"/><line id="Line_61" class="cls-9" x1="1038.6695" y1="1698.837" x2="771.9607" y2="1965.5459"/><line id="Line_62" class="cls-9" x1="1533.9607" y1="1379.5" x2="945.9607" y2="1967.5"/><line id="Line_63" class="cls-9" x1="1294.9607" y1="1748.5459" x2="1077.9607" y2="1965.5459"/><line id="Line_64" class="cls-9" x1="1435.9607" y1="1735.5" x2="1238.9607" y2="1932.546"/><line id="Line_65" class="cls-9" x1="1122.6695" y1="1698.837" x2="855.9607" y2="1965.5459"/><line id="Line_66" class="cls-9" x1="1495.9607" y1="1458.5" x2="988.9607" y2="1965.546"/><line id="Line_67" class="cls-9" x1="1477.9607" y1="1606.5" x2="1151.9607" y2="1932.546"/><line id="Line_68" class="cls-9" x1="1435.9607" y1="1814.5459" x2="1317.9607" y2="1932.5459"/><line id="Line_73" class="cls-9" x1="1475.9607" y1="1814.5459" x2="1357.9607" y2="1932.5459"/><line id="Line_74" class="cls-9" x1="1454.9607" y1="1883.5" x2="1406.5587" y2="1932.546"/><line id="Line_69" class="cls-9" x1="1585.9607" y1="1281.5459" x2="899.9607" y2="1967.5459"/><line id="Line_70" class="cls-9" x1="1416.9607" y1="1583.5" x2="1032.9607" y2="1967.546"/><line id="Line_71" class="cls-9" x1="1381.9607" y1="1748.5459" x2="1197.9607" y2="1932.5459"/><line id="Line_72" class="cls-9" x1="1460.9607" y1="1748.5459" x2="1276.9607" y2="1932.5459"/></g><g id="Group_303"><line id="Line_119" class="cls-9" x1="1584.4607" y1="3327.5" x2="837.4607" y2="3327.5"/><line id="Line_124" class="cls-9" x1="1584.4607" y1="2986.5" x2="1454.9607" y2="2986.5"/><line id="Line_123" class="cls-9" x1="1584.4607" y1="3451.5" x2="1366.4607" y2="3451.5"/><line id="Line_121" class="cls-9" x1="1584.4607" y1="3389.5" x2="1366.4607" y2="3389.5"/><line id="Line_117" class="cls-9" x1="1584.4607" y1="3265.5" x2="1378.1406" y2="3265.5"/><line id="Line_126" class="cls-9" x1="1584.4607" y1="2924.5" x2="1289.9607" y2="2924.5"/><line id="Line_112" class="cls-9" x1="1584.4607" y1="3110.5" x2="1378.1406" y2="3110.5"/><line id="Line_131" class="cls-9" x1="1584.4607" y1="2769.5" x2="1378.1406" y2="2769.5"/><line id="Line_115" class="cls-9" x1="1584.4607" y1="3203.5" x2="1506.4607" y2="3203.5"/><line id="Line_128" class="cls-9" x1="1584.4607" y1="2862.5" x2="1506.4607" y2="2862.5"/><line id="Line_133" class="cls-9" x1="1584.4607" y1="2707.5" x2="1506.4607" y2="2707.5"/><line id="Line_136" class="cls-9" x1="1584.4607" y1="2614.5" x2="1506.4607" y2="2614.5"/><line id="Line_110" class="cls-9" x1="1584.4607" y1="3048.5" x2="1506.4607" y2="3048.5"/><line id="Line_122" class="cls-9" x1="1584.4607" y1="3420.5" x2="1297.4607" y2="3420.5"/><line id="Line_120" class="cls-9" x1="1584.4607" y1="3358.5" x2="1297.4607" y2="3358.5"/><line id="Line_118" class="cls-9" x1="1584.4607" y1="3296.5" x2="1378.1406" y2="3296.5"/><line id="Line_125" class="cls-9" x1="1584.4607" y1="2955.5" x2="1501.9607" y2="2955.5"/><line id="Line_113" class="cls-9" x1="1584.4607" y1="3141.5" x2="1378.1406" y2="3141.5"/><line id="Line_130" class="cls-9" x1="1584.4607" y1="2800.5" x2="1501.9607" y2="2800.5"/><line id="Line_135" class="cls-9" x1="1584.4607" y1="2645.5" x2="1501.9607" y2="2645.5"/><line id="Line_116" class="cls-9" x1="1584.4607" y1="3234.5" x2="1378.1406" y2="3234.5"/><line id="Line_127" class="cls-9" x1="1584.4607" y1="2893.5" x2="1186.9607" y2="2893.5"/><line id="Line_111" class="cls-9" x1="1584.4607" y1="3079.5" x2="1378.1406" y2="3079.5"/><line id="Line_132" class="cls-9" x1="1584.4607" y1="2738.5" x2="1378.1406" y2="2738.5"/><line id="Line_114" class="cls-9" x1="1584.4607" y1="3172.5" x2="1483.4607" y2="3172.5"/><line id="Line_129" class="cls-9" x1="1584.4607" y1="2831.5" x2="1483.4607" y2="2831.5"/><line id="Line_134" class="cls-9" x1="1584.4607" y1="2676.5" x2="1483.4607" y2="2676.5"/><line id="Line_109" class="cls-9" x1="1584.4607" y1="3017.5" x2="1483.4607" y2="3017.5"/></g><g id="Group_304"><line id="Line_137" class="cls-11" x1="1024.9607" y1="3926.4999" x2="306.4607" y2="3207.5229"/><line id="Line_138" class="cls-11" x1="1067.9607" y1="3926.4999" x2="306.4607" y2="3164.5229"/><line id="Line_139" class="cls-11" x1="892.5077" y1="3926.5229" x2="304.5077" y2="3338.5229"/><line id="Line_140" class="cls-11" x1="523.4607" y1="3687.5229" x2="306.4607" y2="3470.5229"/><line id="Line_142" class="cls-11" x1="984.9607" y1="3926.4999" x2="306.4607" y2="3248.5229"/><line id="Line_143" class="cls-11" x1="813.5077" y1="3888.5229" x2="306.4617" y2="3381.5229"/><line id="Line_144" class="cls-11" x1="665.5077" y1="3870.5229" x2="339.4617" y2="3544.5229"/><line id="Line_148" class="cls-11" x1="938.9607" y1="3926.4999" x2="304.4607" y2="3292.5229"/><line id="Line_149" class="cls-11" x1="688.5077" y1="3809.5229" x2="304.4617" y2="3425.5229"/><line id="Line_150" class="cls-11" x1="523.4607" y1="3774.5229" x2="339.4607" y2="3590.5229"/></g><g id="Group_305"><line id="Line_141" class="cls-9" x1="1103.4607" y1="3577.4761" x2="910.9607" y2="3770.5001"/><line id="Line_145" class="cls-9" x1="1103.4607" y1="3656.5229" x2="950.9607" y2="3809.5"/><line id="Line_146" class="cls-9" x1="1143.4607" y1="3656.5229" x2="970.9607" y2="3828.5"/><line id="Line_147" class="cls-9" x1="1122.4607" y1="3725.4761" x2="993.9607" y2="3853.5001"/><line id="Line_152" class="cls-9" x1="1270.9607" y1="3617.5" x2="1014.9607" y2="3873.535"/><line id="Line_153" class="cls-9" x1="1103.9607" y1="3834.5" x2="1039.2107" y2="3898.524"/><line id="Line_151" class="cls-9" x1="1128.4607" y1="3590.5229" x2="929.9607" y2="3789.5"/></g><g id="Group_302"><line id="Line_163" class="cls-13" x1="304.4607" y1="2575.5" x2="407.9607" y2="2575.5"/><line id="Line_159" class="cls-13" x1="304.4607" y1="2451.5" x2="1024.9607" y2="2451.5"/><line id="Line_160" class="cls-13" x1="304.4607" y1="2513.5" x2="899.9607" y2="2513.5"/><line id="Line_165" class="cls-13" x1="304.4607" y1="2637.5" x2="510.7807" y2="2637.5"/><line id="Line_161" class="cls-13" x1="304.4607" y1="2482.5" x2="1050.9607" y2="2482.5"/><line id="Line_162" class="cls-13" x1="304.4607" y1="2544.5" x2="598.9607" y2="2544.5"/><line id="Line_164" class="cls-13" x1="304.4607" y1="2606.5" x2="510.7807" y2="2606.5"/><line id="Line_169" class="cls-13" x1="304.4607" y1="2761.5" x2="510.7807" y2="2761.5"/><line id="Line_166" class="cls-13" x1="304.4607" y1="2668.5" x2="510.7807" y2="2668.5"/><line id="Line_168" class="cls-13" x1="304.4607" y1="2730.5" x2="405.4607" y2="2730.5"/><line id="Line_167" class="cls-13" x1="304.4607" y1="2699.5" x2="382.4607" y2="2699.5"/></g></g></g></svg>