<?xml version="1.0" encoding="UTF-8"?><svg id="Layer_2" xmlns="http://www.w3.org/2000/svg" viewBox="0 0 1600.0044 224.2222"><defs><style>.cls-1{fill:none;stroke:#c7c7c7;stroke-width:2px;}</style></defs><g id="bg-img"><g><line class="cls-1" x1="1600" y1="56.5555" x2="1398.7997" y2="56.5555"/><line class="cls-1" x1="1254.7852" y1="167.6667" x2="1201.2197" y2="222.7289"/><path class="cls-1" d="M1600,1c-60.7673,.2683-122.7673,.2683-183.7673,.2683-31,32-49.6797,51.6797-80.2413,83.2675"/><line class="cls-1" x1="1291.3578" y1="167.6667" x2="1237.2406" y2="223.5188"/><path class="cls-1" d="M1600,29.5c-57.7673-.2318-116.7673-.2318-174.7673-.2318-25,26-51.794,54.4491-51.794,54.4491"/><line class="cls-1" x1="1600" y1="84.3333" x2="0" y2="84.3333"/><line class="cls-1" x1="1600" y1="112.1111" x2="1491.9052" y2="112.1111"/><line class="cls-1" x1="1600" y1="139.8889" x2="1491.9052" y2="139.8889"/><line class="cls-1" x1="1600" y1="167.6667" x2="0" y2="167.6667"/><line class="cls-1" x1="1600" y1="195.4444" x2="1264.1921" y2="195.4444"/><line class="cls-1" x1="1600" y1="223.2222" x2="1237.2406" y2="223.2222"/></g></g></svg>