<?xml version="1.0" encoding="UTF-8"?><svg id="Layer_2" xmlns="http://www.w3.org/2000/svg" viewBox="0 0 76.408 121.815"><defs><style>.cls-1{fill:#fff35f;}.cls-2{fill:#7cf2ef;}.cls-3{fill:#e25c39;}.cls-4{fill:#1818a0;}.cls-5{fill:none;stroke:#999;stroke-miterlimit:10;}</style></defs><g id="footer"><g id="footer_logo"><path id="Path_186" class="cls-2" d="M44.488,11.208L13.032,59.262c-4.8167-5.7017-7.4388-12.9362-7.394-20.4,0-16.6,12.486-30.072,27.886-30.072,3.7442-.0018,7.4448,.8031,10.85,2.36,.035,.019,.079,.038,.114,.057"/><path id="Path_187" class="cls-3" d="M63.16,94.874h-3.176v.094l-38.9,.17c-3.762,.019-7.578,.028-11.208-1.01-3.7972-.966-7.0417-3.4275-8.995-6.824-.4647-.8123-.7642-1.7085-.881-2.637,.964-1.469,10.139-15.488,10.139-15.488,1.4186,1.6532,3.4731,2.6254,5.651,2.674h22.773c12.845,0,24.6,9.05,24.6,23.021"/><path id="Path_188" class="cls-1" d="M13.71,98.082c-.015,.325-.027,.651-.027,.98,0,12.566,11.138,22.753,24.877,22.753s24.878-10.186,24.878-22.753c0-.329-.012-.655-.027-.98H13.71Z"/><path id="Path_189" class="cls-4" d="M76.408,12.4c0,6.182-4.646,11.194-10.378,11.194s-10.377-5.014-10.377-11.194c-.0031-1.8256,.413-3.6275,1.216-5.267l-.971,.6c-.8013,.6583-1.4749,1.4582-1.987,2.36-1.4355,2.4851-1.4915,5.5339-.148,8.07-.026-.028-.07-.066-.131-.122,5.0554,5.7532,7.8206,13.1634,7.77,20.822,0,16.612-12.486,30.072-27.877,30.072-6.8442-.0232-13.4161-2.6836-18.349-7.428L47.157,12.642l-.017-.019c2.66-3.832,3.474-5.418,5.5-8.316C55.889,.571,61.778-.383,66.065,.127c5.941,.717,10.342,6.088,10.342,12.27"/><line id="Line_12" class="cls-5" x1="49.231" y1="63.574" x2="24.133" y2="63.574"/><line id="Line_13" class="cls-5" x1="61.433" y1="86.203" x2="30.616" y2="86.203"/><line id="Line_14" class="cls-5" x1="60.49" y1="109.812" x2="37.216" y2="109.812"/></g></g></svg>