<?xml version="1.0" encoding="UTF-8"?><svg id="Layer_2" xmlns="http://www.w3.org/2000/svg" viewBox="0 0 139.9759 277.7008"><defs><style>.cls-1{fill:#e25c39;}</style></defs><g id="footer"><g><g><path class="cls-1" d="M36.4419,248.328c-2.6836-6.162-5.4021-12.0149-4.9086-18.6176,.1231-1.6478,1.1184-3.6211,2.3571-4.7162,2.846-2.5161,4.355-2.2383,6.255,1.0944,2.1486,3.7688,5.4828,6.065,8.9259,8.3796,3.4122,2.2938,3.4234,3.4507,.2605,5.9741-1.23,.9813-2.4982,1.9385-3.8471,2.742-2.8662,1.7073-5.7967,3.3066-9.0428,5.1438Z"/><path class="cls-1" d="M25.4371,152.1704c-.9104-2.4226,1.0368-4.5609,2.3157-6.8224,.3417-.6042,1.4452-1.1083,2.193-1.1004,6.7248,.0712,9.5633-1.7967,10.1827,8.001,.1864,2.9481,.4473,5.8936,.7659,8.8304,.1804,1.6631-.4381,2.6254-2.0507,3.014-.475,.1145-.9209,.347-1.3827,.5184-4.8535,1.802-7.4447,1.1101-10.4968-2.9724-.4828-.6458-.6209-1.6128-.7378-2.4562-.2974-2.1451-.4925-4.3043-.7893-7.0124Z"/><path class="cls-1" d="M88.837,222.1218c2.3425,6.7857,6.7655,11.9955,5.9833,18.9931-.1667,1.4911-.4518,2.2629-1.9816,3.0685-2.5679,1.3524-4.8098,3.3605-7.0863,5.2184-2.0906,1.7062-3.5169,1.3201-5.0905-.8071-1.9539-2.6413-2.3501-5.069-1.4456-8.3959,1.7825-6.5564,5.6929-11.7824,9.6207-18.0771Z"/><path class="cls-1" d="M65.2519,193.5519c1.9446,4.0437,3.8913,7.9927,5.7189,11.996,.2838,.6217,.2779,1.6205-.0281,2.2254-1.54,3.0448-3.224,6.0167-5.1076,9.4733-4.317-4.0186-8.5407-7.6335-12.3614-11.6334-2.0759-2.1733-.3875-7.2796,2.3894-8.4613,2.7959-1.1898,5.5986-2.3637,8.4035-3.5321,.1696-.0707,.3851-.0314,.9852-.068Z"/><path class="cls-1" d="M41.4336,185.0153c2.321,1.9554,4.769,3.7978,6.9557,5.9106,3.4349,3.3189,2.0061,11.1573-2.3109,13.1857-2.4198,1.1369-4.7239,1.9846-7.6038,.7975-2.5494-1.0509-3.1547-2.4445-3.7106-5.0713-1.398-6.6061,1.3513-10.967,6.6697-14.8224Z"/><path class="cls-1" d="M79.9977,207.3162c.9761,.8175,1.7087,1.3141,2.2824,1.9532,.3776,.4206,.5265,1.0467,.7772,1.581,4.1229,8.7875,4.0883,8.7548-2.5592,15.7766-1.1804,1.2469-2.0373,1.5212-3.4505,.4622-1.9673-1.4741-3.9912-2.9028-6.1235-4.1185-2.3021-1.3125-2.5475-3.0956-1.5803-5.2334,1.1759-2.5992,2.0068-5.5914,3.8817-7.5627,1.5089-1.5866,4.3487-1.9076,6.7721-2.8584Z"/><path class="cls-1" d="M28.1427,241.7976c-2.1565,.82-3.5715,.306-4.5874-1.5761-2.1453-3.9746-4.4687-7.8581-6.471-11.9018-.5218-1.0537-.4667-2.667-.0931-3.837,.9861-3.0879,2.4661-6.0201,3.4174-9.1164,.79-2.5712,2.2033-3.145,4.6246-2.4995,2.5063,.6681,3.6733,2.1087,3.3199,4.7226-.3033,2.2438-.5177,4.5007-.8646,6.7373-.761,4.9059-.9674,9.778,.4004,14.6307,.2544,.9027,.1783,1.8985,.2538,2.8401Z"/><path class="cls-1" d="M41.3609,168.6841c-.168,7.5617-.462,14.4668-7.3195,18.9267-2.263,1.4717-7.9523-.3162-7.9446-2.8718,.012-3.9862,.5564-7.9817,1.0833-11.9457,.1003-.7545,1.0704-1.8386,1.801-1.9901,3.9305-.8147,7.912-1.3828,12.3797-2.1191Z"/><path class="cls-1" d="M51.0667,164.5489c4.3559,8.0776,3.7281,15.8691,.0118,23.9528-3.6868-3.3789-7.6284-6.2806-7.2815-12.065,.318-5.3037,2.2781-9.4203,7.2697-11.8878Z"/><path class="cls-1" d="M59.005,255.3039c-2.0858-4.3955-4.1682-8.0684-5.5245-11.9924-.5465-1.5812,.0201-3.9926,.9237-5.5305,1.5565-2.6489,3.9135-2.6888,6.0154-.4291,2.0735,2.2292,4.0314,4.5775,5.8975,6.9841,1.23,1.5864,1.2089,3.4175-.271,4.839-2.0276,1.9476-4.2361,3.7069-7.0411,6.1288Z"/><path class="cls-1" d="M29.5029,88.1522c3.3725,2.9066,3.1126,7.216,4.3053,10.9745,.8881,2.7987,.0597,4.1814-2.7374,4.8124-1.8109,.4085-3.5191,1.2536-5.3166,1.7443-2.946,.8042-4.4348-.4799-4.2082-3.4951,.5302-7.0564,1.8592-9.4127,7.957-14.0361Z"/><path class="cls-1" d="M125.2859,234.6484c-.435,4.9979-.8931,9.2388-1.1318,13.492-.0997,1.7764,.3917,3.579,.3924,5.3698,.001,2.7442-2.3356,2.3564-4.0319,2.7752-1.769,.4368-2.5745-.4282-3.328-1.9917-1.17-2.4278-1.414-4.7383-.7557-7.3641,.5655-2.2557,.7874-4.6407,.82-6.9732,.0257-1.8433,.5357-2.959,2.3793-3.4488,1.5881-.4219,3.1297-1.0189,5.6557-1.8591Z"/><path class="cls-1" d="M36.8736,122.5869c4.2823,3.3827,3.1966,8.7642-.2686,14.9509-2.2504,4.0178-6.1809,1.0027-9.2014,1.926-1.8698-7.7181,1.0856-12.8254,9.47-16.8769Z"/><path class="cls-1" d="M72.7225,184.5463c4.8405,5.3237,6.6178,10.8072,7.0969,16.8087,.2133,2.6722-2.1927,2.4349-3.6313,2.9843-.6518,.2489-2.1919-.4678-2.5985-1.1696-1.9159-3.3068-3.5132-6.7963-5.3607-10.1454-.8554-1.5506-.7056-2.6044,.5911-3.8439,1.4074-1.3453,2.5356-2.9826,3.9026-4.634Z"/><path class="cls-1" d="M69.1448,242.3619c-2.6509-2.6876-5.461-5.2437-7.8566-8.1422-.73-.8833-.8164-2.9212-.3314-4.0622,1.1741-2.7623,2.8581-5.3079,4.5419-8.3065,2.5207,2.8223,4.8124,5.0378,4.5602,8.8511-.2448,3.7003-.0531,7.4296-.0531,11.1461-.287,.1712-.574,.3425-.861,.5137Z"/><path class="cls-1" d="M48.6022,127.0205c.9737,3.1883,2.0776,6.3396,2.8782,9.566,.6847,2.7594-1.8342,3.5739-3.5369,4.3227-2.0093,.8837-4.3442,1.027-6.4645,1.4757-3.4007-6.6777-.5609-12.7498,7.1231-15.3645Z"/><path class="cls-1" d="M105.7549,225.8179c6.3575,2.2734,7.1509,3.3932,7.394,10.7079,.1422,4.2792-4.2293,3.6399-5.9948,5.8773-5.0021-6.1552-5.359-11.078-1.3992-16.5852Z"/><path class="cls-1" d="M103.8227,247.7893c-2.136,3.7107-3.8846,6.8798-5.7984,9.9458-.3265,.523-1.5461,1.0336-2.0371,.8208-3.2177-1.3944-6.3486-2.9891-10.1915-5.5711,2.3193-1.9527,4.6244-3.9227,6.9708-5.8424,.4253-.348,1.0489-.7413,1.531-.6852,2.9822,.3469,5.9503,.8164,9.5252,1.332Z"/><path class="cls-1" d="M65.0001,163.6825c.9547,.9114,1.805,1.3548,2.0576,2.0238,1.7022,4.5082,3.1968,9.0953,4.927,13.5922,.923,2.3989-.8016,3.3212-2.2578,3.5604-1.1948,.1962-3.2895-.548-3.8031-1.5079-2.5965-4.8529-2.5752-10.2273-2.2334-15.5708,.0374-.5851,.6851-1.1312,1.3097-2.0977Z"/><path class="cls-1" d="M91.1205,220.4127c1.927-.601,3.9098-1.9481,5.1134-1.4421,2.459,1.0337,4.9532,2.7294,6.5055,4.8358,.6992,.9489-.886,3.5216-1.3237,5.3836-.4835,2.0565-1.8772,2.9817-3.805,2.9941-.7421,.0048-1.8727-.507-2.1662-1.1066-1.2055-2.463-2.1645-5.0473-3.1974-7.5938-.3277-.8081-.6031-1.6374-1.1267-3.0711Z"/><path class="cls-1" d="M24.3123,210.0409c2.4333-5.6215,3.9291-11.3548,2.0607-17.4154,5.4262-.5984,6.9769,.6256,7.0562,5.4538,.0619,3.7694,.0877,7.6618-3.2896,10.2325-1.5019,1.1432-3.4556,1.6929-5.2042,2.512-.2077-.2609-.4153-.5219-.623-.7828Z"/><path class="cls-1" d="M44.3447,108.0528c1.9653,5.0962,1.6539,10.3972,1.2643,15.6439-.0354,.477-2.8303,1.4681-3.4834,1.0056-.899-.6366-.9852-2.4292-1.4039-3.7315-.1611-.5012-.2462-1.0282-.4264-1.5214-.1663-.455-.5623-.8692-.5961-1.3209-.0879-1.1735-.0338-2.3577-.0336-3.5376q.001-4.7683,4.6791-6.5381Z"/><path class="cls-1" d="M136.0966,250.8885c-.2028,4.8494-1.9276,7.1707-5.2276,7.0353-2.6208-.1075-4.3466-1.9777-4.2697-4.6269,.1214-4.1819,1.3461-6.291,3.5791-6.1634,5.027,.2874,6.0365,.9279,5.9182,3.755Z"/><path class="cls-1" d="M122.0023,272.6877c-2.8305,1.5211-5.2793,3.9234-7.6284,3.8294-3.0604-.1224-2.7474-4.0058-3.5507-6.4157-.3965-1.1894-.409-2.5068-.59-3.7302,3.7743-2.0796,4.3126-1.9993,7.044,1.0288,1.3143,1.457,2.6155,2.9257,4.725,5.2876Z"/><path class="cls-1" d="M112.8606,225.7871c-2.7286-1.2018-4.6048-1.8469-6.2715-2.8427-.772-.4613-1.5153-1.5631-1.615-2.4485-.3289-2.9194-.4037-5.8716-.4619-8.8134-.011-.557,.5007-1.1243,.7712-1.6868,.5534,.3237,1.2928,.516,1.6293,.9927,1.9266,2.7288,4.0694,5.3757,5.4973,8.3575,.7881,1.6457,.3222,3.8919,.4505,6.4412Z"/><path class="cls-1" d="M30.9185,221.2871c-1.709-5.1388,.0029-9.5096,3.1081-14.3976,1.6139,1.574,4.1004,2.8465,4.2453,4.3455,.5447,5.6338-1.3426,7.8386-7.3534,10.0521Z"/><path class="cls-1" d="M40.2664,87.2371c1.489,5.0519,2.8707,9.7397,4.3463,14.7458-1.5759,.6634-3.1441,1.3235-5.0638,2.1316-1.2381-3.2687-2.7334-6.1972-3.3466-9.3-.2738-1.3856,1.1498-3.1609,1.9471-4.6839,.4919-.9395,1.2554-1.7368,2.1171-2.8935Z"/><path class="cls-1" d="M74.3301,246.5695q5.4586,5.8127,.1534,11.1701c-.9449,.9634-1.5765,2.2339-2.6272,3.7615-3.8268-9.3656-3.6668-10.1472,2.4737-14.9316Z"/><path class="cls-1" d="M62.2994,176.6949c-2.5191-1.5693-5.7171-1.3187-5.6036-4.9712-3.9945-1.4519,.0066-3.6062-.6222-5.5011-.356,.1406-.7999,.3158-2.1014,.8297,1.6806-2.0579,2.8659-3.5092,4.0829-4.9993,2.5486,.6254,3.7347,1.885,3.6879,4.5462-.0557,3.1715,.3283,6.3506,.5565,10.0957Z"/><path class="cls-1" d="M14.9428,68.2214c-.2312-2.7218-.4617-5.4438-.6938-8.1655-.2098-2.4596,1.4001-2.6652,3.2148-2.569,1.9222,.1019,4.5507-.1765,4.3381,2.5874-.202,2.6267-1.1691,5.3167-2.3472,7.7093-1.0239,2.0793-2.8916,2.5343-4.5987,.3371-.0004-.0014,.0869,.1008,.0869,.1008Z"/><path class="cls-1" d="M79.0646,180.3315c3.0071,4.8237,5.8031,9.3089,8.5991,13.7941-.1187,.2098-.2374,.4195-.3562,.6292-2.0561-.6633-4.1136-1.3221-6.1656-1.9976-.1771-.0583-.3727-.1934-.4677-.3489-1.8045-2.958-3.5952-5.9245-5.5095-9.0888,1.2295-.942,2.3717-1.8171,3.8998-2.988Z"/><path class="cls-1" d="M124.7018,212.3957c6.8381,8.2446,9.7292,13.851,8.5395,16.9518-3.1522-2.1925-7.9189-2.8546-6.6578-8.5158,.0466-.209-.5658-.5238-.798-.8426-1.6573-2.2757-3.2132-4.5783-1.0837-7.5934Z"/><path class="cls-1" d="M57.6106,156.1041c-.2161,4.805-1.0672,5.8262-4.6634,5.7172-1.7808-.054-2.4794-.864-2.2462-2.6108,.2335-1.75,.3956-3.5094,.5989-5.2636,.2241-1.9333,.992-3.5907,3.1877-3.497,2.2805,.0973,3.0753,1.7907,3.1211,3.8881,.0128,.5884,.002,1.1774,.002,1.7661Z"/><path class="cls-1" d="M68.6826,161.5708c3.1093,5.0473,6.2185,10.0946,9.4866,15.3996-1.4996,1.08-2.8943,2.0844-4.7206,3.3997-1.5398-6.5205-5.5494-11.8965-5.4998-18.477,.2446-.1074,.4892-.2148,.7338-.3222Z"/><path class="cls-1" d="M37.7528,267.1487c.2851-1.7729-1.0837-4.6614,2.8545-4.4808,3.3661,.1543,5.4925,1.8954,5.5165,4.8028,.0228,2.7553-2.0591,4.5369-5.2932,4.53q-3.0785-.0066-3.0777-4.852Z"/><path class="cls-1" d="M19.587,92.0591c-1.5674-6.4432,.6408-9.5099,7.2324-10.3522,1.4917,3.5085,1.0189,5.2554-1.9618,7.1223-1.7277,1.0821-3.4758,2.1315-5.2706,3.2299Z"/><path class="cls-1" d="M26.2914,74.4538c-.0092,2.1416-2.4845,4.9423-4.3521,4.9242-1.9955-.0193-4.0219-2.006-4.0681-3.9883-.0539-2.3183,2.5855-5.0269,4.9358-5.0651,1.5786-.0257,3.4924,2.2423,3.4843,4.1292Z"/><path class="cls-1" d="M20.9508,131.0429c2.4956-.2322,3.5931,.6289,3.4532,3.1389-.1635,2.9342-.1869,5.8942,.0065,8.8247,.167,2.5314-.9198,3.7999-3.4597,4.4359v-16.3994Z"/><path class="cls-1" d="M133.7562,233.8258c-1.644,3.0278-3.1626,5.8245-4.6812,8.6212-.3378,.0044-.6757,.0088-1.0135,.0131-.4882-4.5826-.9765-9.1651-1.4647-13.7476,.4212-.1756,.8424-.3512,1.2637-.5268,1.9775,1.8918,3.9549,3.7835,5.8957,5.6401Z"/><path class="cls-1" d="M34.3933,90.8058c-1.4108-3.1724-2.8664-6.1518-4.0005-9.2489-.2207-.6027,.614-1.9659,1.3209-2.4223,.6293-.4063,2.0691-.414,2.6115,.043,3.1601,2.6624,3.2471,8.0652,.0681,11.6281Z"/><path class="cls-1" d="M106.0852,200.63c6.9255,1.297,10.6153,5.9477,14.3789,11.8445-3.3933-1.7063-5.9735-3.4216-8.8119-4.3276-3.7493-1.1968-4.4321-4.2232-5.5669-7.5168Z"/><path class="cls-1" d="M98.8199,209.6741c2.8598-.1866,4.6396,.6434,4.517,4.0311-.0764,2.111,.3975,4.242,.6436,6.543-6.9288-3.2264-7.8357-5.1666-5.1606-10.5741Z"/><path class="cls-1" d="M103.5453,207.1645c-1.9487-.2808-3.3309-.367-4.6455-.7115-.8012-.21-2.0523-.7177-2.151-1.2634-.5929-3.2785-2.596-5.4565-5.368-7.2339,3.2007-1.2275,9.1682,1.9386,9.0449,5.0614-.0816,2.0684,.6599,2.1344,1.9846,2.5078,.3437,.0969,.534,.7381,1.135,1.6396Z"/><path class="cls-1" d="M59.3723,150.0384c.1653,1.0366,.3306,2.0731,.5395,3.3831,.4733-.5187,.7622-.8354,.7527-.825,1.5265,1.6348,3.0835,3.2887,4.623,4.9588,.5023,.5449,1.4616,1.3264,1.3327,1.6594-.2752,.7111-1.321,1.8011-1.7056,1.6757-1.6906-.551-4.146-1.0976-4.6849-2.3507-1.1112-2.584-1.1759-5.618-1.6712-8.4669,.2713-.0114,.5426-.0229,.8138-.0343Z"/><path class="cls-1" d="M106.8356,207.2714c3.5167,.9401,6.3484,3.3627,9.8687,5.1685-1.2196,1.6137-2.2323,2.9535-3.245,4.2933-.1811-.0793-.3622-.1586-.5432-.2379,.0621-.5706,.1242-1.1411,.1346-1.237-2.4033-2.3585-4.6473-4.5607-6.8913-6.7629,.2254-.408,.4508-.816,.6762-1.2239Z"/><path class="cls-1" d="M113.7787,252.8773c.2032,1.2487,.3877,2.501,.6196,3.7443,.0831,.4456,.3411,.8602,.413,1.306,.1529,.948,.2362,1.9072,.348,2.8618-1.4675,.1616-2.9534,.4997-4.3888,.3512-.3283-.034-.8963-1.8848-.6362-2.6581,.6532-1.9424,1.7169-3.7468,2.6159-5.6065,.3428,.0004,.6857,.0008,1.0285,.0012Z"/><path class="cls-1" d="M112.2102,242.2361c-.7015,2.6564-1.0827,4.5635-1.7357,6.3724-.3149,.8724-1.3449,2.2953-1.6992,2.1973-1.1875-.3285-2.7713-1.0117-3.1498-1.9736-.3772-.9587,.1348-2.8413,.9369-3.5605,1.3339-1.196,3.2112-1.7861,5.6478-3.0356Z"/><path class="cls-1" d="M59.1739,257.7974c1.2487,2.1579,2.3276,3.664,2.9944,5.3346,.3072,.7698,.0367,2.541-.3694,2.6778-1.144,.3853-2.6293,.494-3.7158,.0562-.7313-.2947-1.5617-1.8308-1.3852-2.5868,.3885-1.6639,1.3868-3.1855,2.4761-5.4817Z"/><path class="cls-1" d="M52.6166,277.7008c-5.6315-3.5029-5.663-3.5972-2.4903-8.8276,.9268,1.1348,1.7512,2.1459,2.5776,3.1556,.806,.9847,1.614,1.9679,2.6305,3.2069-.9413,.8538-1.8482,1.6764-2.7178,2.4651Z"/><path class="cls-1" d="M85.8064,186.9607c3.9862,2.2738,7.6563,4.1118,9.0309,8.4145-4.5991,.4274-6.4881-1.2511-9.0309-8.4145Z"/><path class="cls-1" d="M22.8902,175.2303c-.582-4.766-1.1256-9.2177-1.6822-13.7757,5.1807,1.3266,4.832,7.2256,1.6822,13.7757Z"/><path class="cls-1" d="M132.0578,259.6536c1.3005-.3347,2.4084-.9752,3.2765-.7381,.7845,.2143,1.5742,1.297,1.8686,2.164,.284,.8364-2.0272,2.3091,.6569,2.6735-.3094,.833-.6188,1.6661-1.0842,2.9191,.0994,.0892,.695,.6238,1.2905,1.1584-.2387,.1908-.4775,.3816-.7163,.5724-1.6952-2.8027-3.3904-5.6054-5.292-8.7495Z"/><path class="cls-1" d="M126.3014,258.1701c5.1779,2.1583,5.3225,5.8252,.9596,9.487-.304-3.0057-.6113-6.0436-.9596-9.487Z"/><path class="cls-1" d="M26.2355,58.1624c.1517,3.0933,.2656,5.417,.3888,7.9296-.853,.2123-1.681,.4184-2.493,.6205-2.1756-3.1133-1.7354-5.7079,2.1042-8.5501Z"/><path class="cls-1" d="M26.7687,246.7573c1.6602-.2618,2.3966-.3779,2.4446-.3855,1.1865,1.6808,2.265,2.8482,2.9078,4.2198,.6524,1.3921,.8747,2.9857,1.2853,4.4911-.3627,.1526-.7254,.3052-1.0881,.4578-1.7504-2.7704-3.5009-5.5408-5.5496-8.7832Z"/><path class="cls-1" d="M104.3726,203.1928c-2.9962,.409-2.0858-3.2913-4.3119-3.803,2.0649-1.5225,3.3267-.9132,4.2636,.5904,.6699,1.0751,1.2826,2.2128,1.7153,3.3975,.2187,.599,.0409,1.3777-.1082,2.0413-.0246,.1096-1.1772,.1528-1.2113,.0424-.2046-.6629-.2348-1.3796-.3475-2.2687Z"/><path class="cls-1" d="M135.753,230.9916c2.3785,2.3337,4.2216,4.9141,3.8239,8.5269-.2545,.1237-.5091,.2474-.7636,.3711-1.3668-2.8028-2.7337-5.6056-4.1005-8.4084,.3468-.1632,.6935-.3264,1.0403-.4896Z"/><path class="cls-1" d="M139.8451,241.5797c.5023,3.6613-.6337,5.4522-.214,8.5114-3.5405-.1634-2.5876-2.5709,.214-8.5114Z"/><path class="cls-1" d="M55.1625,266.7143c1.33,.6605,2.7279,1.2246,3.927,2.0706,.2147,.1515-.1616,1.7966-.6805,2.1622-.6198,.4366-2.1335,.6274-2.4719,.2387-.8378-.9624-1.2266-2.3156-1.7958-3.5118,.3404-.3199,.6808-.6398,1.0212-.9597Z"/><path class="cls-1" d="M63.5661,261.0374c-.7399-1.4823-1.6685-2.9106-2.1165-4.4764-.1547-.5408,.8862-1.4237,1.381-2.1503,.4359,.5092,1.1174,.9579,1.2604,1.5391,.3878,1.5754,.547,3.207,.7969,4.8163-.4406,.0904-.8812,.1808-1.3218,.2712Z"/><path class="cls-1" d="M55.3898,146.3321c-1.0569,.0975-2.0228,.1865-2.9088,.2682v-6.2018q4.3536,5.8294,3.1396,8.0758c-.1095-1.0162-.1773-1.6455-.2308-2.1422Z"/><path class="cls-1" d="M39.1008,258.8876h.8359c.154,.1639,.308,.3278,.4621,.4917-.5638,.3437-1.3453,1.1112-1.6517,.9538-1.0388-.5337-2.1957-1.2277-2.7532-2.1837-.4391-.7528-.1517-1.9968,.0022-2.9934,.0584-.3779,.8562-1.0154,.9593-.9521,.688,.4224,1.5727,.8891,1.8312,1.5585,.3613,.9358,.232,2.0609,.3142,3.1252Z"/><path class="cls-1" d="M20.7705,240.274c1.0895,1.3614,2.2855,2.6548,3.2183,4.1162,.396,.6205,3.1968,10.9701,3.2537,11.753,.673,9.2586-2.4987-.0822-3.47-.6027-.614-.3291-2.5994-1.9957-2.8218-2.6644-.5742-1.7264-.2463-10.6573-.7407-12.4102,.1868-.064,.3736-.128,.5604-.1919Z"/></g><path class="cls-1" d="M46.0791,48.4389c-2.2724-4.771-4.4437-9.594-6.8653-14.2881-1.0164-1.9702-1.0382-3.2207,.7653-4.7796,1.631-1.4097,2.7706-3.3879,4.6621-5.7972-2.9104-.1673-4.857-.4752-6.7708-.335-1.9775,.1449-3.1288-.6142-3.3476-2.4383-.4548-3.7933-.5485-7.6368-1.1528-11.4016-.2116-1.3183-1.3436-2.6058-2.3435-3.6245-.413-.4208-1.9165-.4361-2.3288-.0306-.5608,.5516-.6079,1.6735-.7579,2.5705-.0579,.3462,.2573,.7386,.3142,1.1229,.3055,2.0635-.2337,3.8297-2.3113,4.5772-1.9942,.7175-3.9494,.1464-4.7225-1.8588-.8998-2.3336-1.4985-4.8486-1.775-7.3352-.1957-1.76-.0249-3.4894-2.2103-3.8613-1.9743-.336-3.876,1.569-3.9926,3.8797-.0493,.9763,.1484,1.9628,.1844,2.9464,.0353,.9613,.0077,1.9249-.3826,2.9114-.2129-2.0033-.5889-4.0059-.5975-6.01C12.4359,2.1849,14.8552-.0455,17.2154,.0007c1.8932,.0371,2.8366,2.0487,3.111,4.8053,.2358,2.3686,1.0392,4.7633,2.0607,6.9247,.3399,.7192,2.4061,1.315,3.1859,.9382,.7714-.3727,.9285-2.0397,1.3177-3.1519,.0492-.1407-.1468-.3555-.1968-.5446-.6963-2.6285,.2158-4.7454,2.2605-5.2594,2.0181-.5074,5.5982,1.7475,5.8395,3.8719,.3108,2.7362,.453,5.4975,.5395,8.252,.1794,5.7156,.8356,6.4201,6.423,6.5224,3.6708,.0672,4.1846,.9775,2.3885,4.2354-.095,.1724-.1705,.3742-.3109,.5001-4.2218,3.7865-2.9618,7.7363-.7364,12.0484,1.4962,2.8991,2.2292,6.1919,3.3037,9.3086-.1074-.0043-.2149-.0086-.3223-.0129Z"/><path class="cls-1" d="M14.5691,68.4812c1.2243,5.8383,2.4486,11.6766,3.6728,17.5149-.171,.0402-.342,.0803-.513,.1205-1.821-7.246-3.649-14.4902-5.4601-21.7387-.9062-3.6267-1.5699-7.3297-2.72-10.876-1.7549-5.4114-2.1047-10.7768-.3458-16.1998,1.1809-3.641-.065-6.0774-2.7047-8.8252C3.7986,25.6663,2.1017,21.8456,.2212,18.3305c-.4314-.8063-.2006-2.6313,.4224-3.1493,.6167-.5128,2.2843-.293,3.192,.1797,2.2938,1.1945,4.574,2.5678,5.3246,5.1218-2.4069-1.792-4.8768-3.6309-7.3467-5.4698-.3568,.2706-.7136,.5412-1.0705,.8118,.4655,1.6165,.5624,3.4891,1.4714,4.7976,2.0543,2.9573,4.3224,5.8231,6.8636,8.3665,1.8906,1.8923,2.8439,3.8194,1.9649,6.2902-2.2694,6.3792-1.9978,12.6681-.0385,19.0759,1.4303,4.6777,2.4496,9.4812,3.6521,14.2285l-.0873-.1022Z"/><path class="cls-1" d="M46.3723,53.435c-5.1169,3.0349-9.1006,2.4811-12.488-.6673-.9328-.867-2.7432-.7899-4.1509-1.146-.1527,1.2162-.7029,2.5459-.3931,3.6299,1.8832,6.5903,3.9623,13.1246,5.3863,19.8929-.853-2.4818-1.7181-4.9595-2.5562-7.4463-1.4435-4.2834-3.0109-8.5334-4.2164-12.8833-.3521-1.2707,.0369-3.8954,.6206-4.0654,1.893-.5514,5.0607-1.1175,5.8966-.126,3.1486,3.7348,6.831,4.0991,11.9012,2.8116Z"/></g></g></svg>