<?xml version="1.0" encoding="UTF-8"?><svg id="Layer_2" xmlns="http://www.w3.org/2000/svg" viewBox="0 0 71.9311 71.8957"><defs><style>.cls-1{fill:#e25c39;}.cls-2{fill:none;stroke:#e25c39;stroke-miterlimit:10;stroke-width:2px;}</style></defs><g id="footer"><g><path class="cls-2" d="M70.9311,35.9479c0,19.3027-15.6554,34.9479-34.9642,34.9479S1,55.2506,1,35.9479,16.6552,1,35.9669,1s34.9642,15.6481,34.9642,34.9479Z"/><g><rect class="cls-1" x="19.7409" y="28.4183" width="7.7312" height="24.4699"/><circle class="cls-1" cx="23.6065" cy="21.9789" r="3.8656"/><path class="cls-1" d="M55.82,39.7919c0-6.4293-1.3927-11.3736-8.9191-11.3736-3.6171,0-6.0449,1.9791-7.038,3.8557h-.1028v-3.2614h-7.1339v23.8755h7.4352v-11.8118c0-3.1144,.5912-6.131,4.4607-6.131,3.8112,0,3.8673,3.562,3.8673,6.3314v11.6114h7.4305v-13.0963Z"/></g></g></g></svg>