<?xml version="1.0" encoding="UTF-8"?><svg id="Layer_2" xmlns="http://www.w3.org/2000/svg" viewBox="0 0 71.9311 71.8957"><defs><style>.cls-1{fill:#e25c39;}.cls-2{fill:none;stroke:#e25c39;stroke-miterlimit:10;stroke-width:2px;}</style></defs><g id="footer"><g><path class="cls-2" d="M70.9311,35.9475c0,19.3003-15.6553,34.9482-34.9641,34.9482S1,55.2478,1,35.9475,16.6553,1,35.967,1s34.9641,15.645,34.9641,34.9475Z"/><path class="cls-1" d="M26.8185,56.0755c.0377,.2787,.4016,.3451,.566,.1354,.2345-.3025,3.2642-3.9841,4.2938-7.663,.2912-1.0432,1.6713-6.4395,1.6713-6.4395,.8275,1.5554,3.2426,2.9197,5.8114,2.9197,7.6444,0,12.8305-6.8621,12.8305-16.0489,0-6.9464-5.9759-13.4177-15.0569-13.4177-11.2966,0-16.9948,7.979-16.9948,14.6307,0,4.0267,1.5498,7.61,4.8679,8.9452,.5472,.2203,1.0351,.0079,1.1914-.584,.1105-.4115,.3693-1.4467,.4878-1.882,.1564-.5866,.097-.791-.3423-1.3033-.9596-1.1121-1.5715-2.5535-1.5715-4.5946,0-5.9167,4.4988-11.2147,11.7091-11.2147,6.3855,0,9.895,3.8435,9.895,8.9743,0,6.7527-3.0351,12.4522-7.5365,12.4522-2.4906,0-4.3532-2.0259-3.7575-4.5131,.717-2.9649,2.1024-6.166,2.1024-8.3081,0-1.9164-1.0458-3.517-3.2076-3.517-2.5444,0-4.5877,2.5934-4.5877,6.0626,0,2.211,.7601,3.7054,.7601,3.7054,0,0-2.6038,10.8597-3.0594,12.7629-.9084,3.7877-.1375,8.4302-.0727,8.8973Z"/></g></g></svg>