<?xml version="1.0" encoding="UTF-8"?><svg id="Capa_1" xmlns="http://www.w3.org/2000/svg" viewBox="0 0 342.929 407.453"><defs><style>.cls-1{fill:#010002;}</style></defs><path class="cls-1" d="m222.837,116.515c4.487,0,8.129-3.633,8.129-8.129s-3.642-8.129-8.129-8.129h-111.613c-4.487,0-8.129,3.633-8.129,8.129s3.642,8.129,8.129,8.129h111.613Z"/><path class="cls-1" d="m334.8,100.258h-55.372c-4.487,0-8.129,3.633-8.129,8.129s3.642,8.129,8.129,8.129h47.243v274.681H16.257V116.515h44.536c4.487,0,8.129-3.633,8.129-8.129s-3.642-8.129-8.129-8.129H8.129c-4.487,0-8.129,3.633-8.129,8.129v290.938c0,4.495,3.642,8.129,8.129,8.129h326.671c4.487,0,8.129-3.633,8.129-8.129V108.386c0-4.495-3.634-8.128-8.129-8.128Z"/><path class="cls-1" d="m250.328,134.796c4.487,0,8.129-3.633,8.129-8.129v-59.273c-.001-37.156-40.115-67.394-89.618-67.394-49.308,0-89.414,30.238-89.414,67.394v59.274c0,4.495,3.642,8.129,8.129,8.129s8.129-3.633,8.129-8.129v-59.274c0-28.198,32.823-51.137,73.36-51.137,40.334,0,73.157,22.939,73.157,51.137v59.274c-.001,4.495,3.633,8.128,8.128,8.128Z"/><path class="cls-1" d="m66.63,147.566c0,11.526,9.389,20.907,20.923,20.907s20.923-9.38,20.923-20.907c0-4.495-3.642-8.129-8.129-8.129s-8.129,3.633-8.129,8.129c0,2.561-2.089,4.65-4.666,4.65-2.569,0-4.666-2.089-4.666-4.65,0-4.495-3.642-8.129-8.129-8.129s-8.127,3.634-8.127,8.129Z"/><path class="cls-1" d="m250.328,168.473c11.534,0,20.923-9.38,20.923-20.907,0-4.495-3.642-8.129-8.129-8.129s-8.129,3.633-8.129,8.129c0,2.561-2.089,4.65-4.666,4.65s-4.666-2.089-4.666-4.65c0-4.495-3.642-8.129-8.129-8.129s-8.129,3.633-8.129,8.129c.002,11.526,9.39,20.907,20.925,20.907Z"/></svg>