<?xml version="1.0" encoding="UTF-8"?><svg id="Layer_2" xmlns="http://www.w3.org/2000/svg" viewBox="0 0 8050.8138 6207.5567"><defs><style>.cls-1{fill:#3fa9f5;}</style></defs><g id="Layer_10"><path class="cls-1" d="m3375.5261,1040.0477c427.7816-303.5339,596.5282-424.046,1276.5286-913.6586,546.4544-419.2407,1564.2243,295.5461,834.1185,816.4962l-642.0709,458.1349c701.0167-461.4842,1245.4008,414.0189,740.2478,767.2244,770.2742-537.7813,1075.7303-754.1311,1131.0939-793.7755,1004.4183-719.2364,2005.4322,399.3056,745.3904,1301.164-1260.0418,901.8584-1144.1709,820.4613-1910.6842,1322.2945,560.6204-368.5155,1129.098,334.4084,525.3937,792.464-1018.7691,772.9826-1261.8058,939.0624-1770.1132,1277.9679-622.1346,414.7978-1557.2843-184.1331-926.4246-663.0763,100.9389-76.632-558.8496,399.7216-635.5351,452.8331-623.0218,431.4978-1556.3309-505.5849-666.4966-1142.4722s-836.2534,598.6203-1195.9421,855.9799c-650.2133,465.2317-1293.7-322.9904-543.6048-894.3802,1126.5491-858.156,1030.885-801.5666,1670.6576-1254.1739-513.0657,367.0196-1345.5296-355.1694-437.3872-1062.2428,297.3165-231.4886-63.8326,50.705,261.0101-203.3718-324.9121,254.0768-839.1741-241.2471-390.661-572.1445,651.5689-480.7049,942.721-689.0644,1302.4731-932.2281,636.6868-430.3493,1050.4924,89.3811,632.0058,386.9648Z"/></g></svg>