<?xml version="1.0" encoding="UTF-8"?><svg id="Layer_2" xmlns="http://www.w3.org/2000/svg" viewBox="0 0 69.9312 69.8955"><defs><style>.cls-1{fill:#e25c39;}</style></defs><g id="footer"><g><path class="cls-1" d="M34.9678,2c18.1763,0,32.9634,14.7803,32.9634,32.9473s-14.7871,32.9482-32.9634,32.9482S2,53.1152,2,34.9473,16.7891,2,34.9678,2m0-2C15.6548,0,0,15.6455,0,34.9473s15.6548,34.9482,34.9678,34.9482,34.9634-15.6484,34.9634-34.9482S54.2759,0,34.9678,0h0Z"/><path class="cls-1" d="M55.6339,20.4176c-1.6172,1.0136-3.4097,1.747-5.3163,2.1445-1.5243-1.7161-3.6992-2.7884-6.1078-2.7884-4.6206,0-8.3676,3.9503-8.3676,8.8245,0,.6915,.0744,1.3633,.2151,2.0101-6.9548-.3695-13.121-3.8802-17.249-9.2191-.7197,1.3018-1.1339,2.8192-1.1339,4.4374,0,3.0599,1.4805,5.7589,3.7245,7.3406-1.3704-.0449-2.6623-.4424-3.7908-1.1032v.1121c0,4.2721,2.8851,7.8389,6.7144,8.6508-.7036,.2015-1.4419,.3108-2.2067,.3108-.5391,0-1.0623-.0559-1.5747-.1595,1.0676,3.5051,4.1559,6.0556,7.8179,6.1284-2.8653,2.3657-6.4716,3.7766-10.3951,3.7766-.6772,0-1.341-.042-1.997-.1231,3.7058,2.5029,8.1062,3.9615,12.8303,3.9615,15.3941,0,23.8095-13.4411,23.8095-25.1015,0-.3809-.0053-.7643-.0212-1.1423,1.633-1.2431,3.0537-2.7969,4.1745-4.5663-1.5004,.7028-3.1123,1.176-4.8066,1.3887,1.7288-1.0918,3.0539-2.8192,3.6805-4.8826Z"/></g></g></svg>