<?xml version="1.0" encoding="UTF-8"?><svg id="Layer_2" xmlns="http://www.w3.org/2000/svg" viewBox="0 0 71.9311 71.8957"><defs><style>.cls-1{fill:#e25c39;}.cls-2{fill:none;stroke:#e25c39;stroke-miterlimit:10;stroke-width:2px;}</style></defs><g id="footer"><g><path class="cls-2" d="M70.9311,35.9475c0,19.3003-15.6552,34.9482-34.9642,34.9482S1,55.2478,1,35.9475,16.6554,1,35.967,1s34.9642,15.645,34.9642,34.9475Z"/><g id="Lozenge"><path class="cls-1" d="M55.9532,27.6672s-.3984-2.8545-1.6201-4.1108c-1.5508-1.647-3.2905-1.6577-4.0845-1.7524-5.7129-.418-14.2725-.418-14.2725-.418h-.0186s-8.5649,0-14.2725,.418c-.7969,.0947-2.5332,.1055-4.0869,1.7524-1.2222,1.2563-1.6201,4.1108-1.6201,4.1108,0,0-.4092,3.3511-.4092,6.7017v3.1406c0,3.3545,.4092,6.7051,.4092,6.7051,0,0,.3979,2.8521,1.6201,4.1084,1.5537,1.6499,3.5933,1.5962,4.4985,1.7686,3.2642,.3179,13.8687,.418,13.8687,.418,0,0,8.5703-.0161,14.2832-.4312,.7939-.0972,2.5337-.1055,4.0845-1.7554,1.2217-1.2563,1.6201-4.1084,1.6201-4.1084,0,0,.4087-3.3506,.4087-6.7051v-3.1406c0-3.3506-.4087-6.7017-.4087-6.7017Zm-24.1973,13.6523l-.0024-11.6357,11.0215,5.8389-11.019,5.7969Z"/></g></g></g></svg>